<svg data-v-423bf9ae="" xmlns="http://www.w3.org/2000/svg" viewBox="0 0 357 90" class="iconLeftSlogan"><!----><!----><!----><g data-v-423bf9ae="" id="7fb57aad-9260-4c3d-8b1f-d21a061d8ba3" fill="white" transform="matrix(4.087193641044897,0,0,4.087193641044897,105.54495980065089,-11.117166582159093)"><path d="M1.23 10.91C1.23 11.30 1.22 11.65 1.20 11.96C1.18 12.57 1.14 13.10 1.09 13.53L3.38 13.53C3.36 13.36 3.33 13.11 3.31 12.80C3.26 12.17 3.24 11.54 3.24 10.91L3.24 10.44C3.26 9.93 3.43 9.38 3.69 8.99C3.97 8.57 4.34 8.31 4.76 8.31C5.21 8.31 5.46 8.46 5.58 8.77C5.68 9.05 5.70 9.40 5.70 10.19L5.70 10.92C5.70 11.29 5.69 11.63 5.68 11.95C5.65 12.57 5.61 13.10 5.57 13.53L7.84 13.53C7.82 13.35 7.80 13.12 7.78 12.85C7.74 12.24 7.72 11.56 7.72 10.83L7.72 10.21C7.75 9.73 7.92 9.26 8.19 8.90C8.46 8.53 8.82 8.31 9.21 8.31C9.66 8.31 9.90 8.46 10.02 8.77C10.13 9.05 10.14 9.40 10.14 10.19L10.14 10.92C10.14 11.29 10.14 11.63 10.12 11.95C10.09 12.57 10.06 13.10 10.01 13.53L12.29 13.53C12.26 13.35 12.24 13.12 12.22 12.85C12.19 12.24 12.17 11.56 12.17 10.83L12.17 9.79C12.17 9.25 12.12 8.83 12.03 8.53C11.91 8.12 11.70 7.81 11.39 7.59C11.04 7.34 10.54 7.22 9.88 7.22C9.41 7.22 8.97 7.36 8.55 7.66C8.15 7.93 7.85 8.31 7.65 8.71C7.55 8.23 7.34 7.86 7.03 7.63C6.66 7.36 6.13 7.22 5.43 7.22C4.98 7.22 4.56 7.36 4.14 7.64C3.77 7.90 3.46 8.25 3.29 8.61C3.31 8.18 3.33 7.85 3.35 7.63C3.35 7.64 3.36 7.55 3.38 7.33L1.09 7.51L1.11 7.69L1.16 8.20C1.20 8.87 1.23 9.50 1.23 10.09ZM13.66 13.20C13.83 13.29 14.04 13.38 14.30 13.48C14.83 13.66 15.36 13.76 15.87 13.76C16.60 13.76 17.33 13.59 17.89 13.28C18.49 12.92 18.85 12.38 18.85 11.63C18.85 11.30 18.77 11.03 18.62 10.79C18.35 10.39 17.91 10.05 17.29 9.78C16.97 9.64 16.72 9.53 16.53 9.44C16.00 9.18 15.72 8.96 15.72 8.64C15.72 8.43 15.83 8.25 16.04 8.13C16.23 8.03 16.46 7.97 16.76 7.97C17.00 7.97 17.21 8.00 17.39 8.06C17.74 8.18 18.01 8.33 18.21 8.53L18.43 7.67C18.28 7.57 18.13 7.50 17.95 7.44C17.54 7.29 17.12 7.22 16.68 7.22C16.25 7.22 15.84 7.27 15.46 7.39C14.99 7.53 14.63 7.74 14.36 8.02C14.04 8.34 13.88 8.74 13.88 9.20C13.88 9.53 13.96 9.81 14.11 10.04C14.38 10.45 14.82 10.81 15.43 11.10L15.75 11.26C15.95 11.35 16.09 11.42 16.18 11.47C16.70 11.73 16.98 11.94 16.98 12.23C16.98 12.48 16.87 12.67 16.67 12.80C16.46 12.92 16.22 12.99 15.92 12.99C15.66 12.99 15.40 12.95 15.16 12.88C14.67 12.75 14.23 12.57 13.85 12.33ZM19.79 8.30L20.60 8.30L20.60 10.43C20.60 11.66 20.76 12.46 21.14 12.97C21.53 13.51 22.19 13.76 23.21 13.76C23.57 13.76 23.88 13.73 24.14 13.66C24.67 13.54 25.07 13.38 25.36 13.16L25.20 12.32C25.07 12.43 24.93 12.51 24.78 12.59C24.44 12.76 24.12 12.85 23.80 12.85C23.30 12.85 23.00 12.63 22.83 12.17C22.67 11.75 22.62 11.10 22.62 10.06L22.62 8.32L23.26 8.35L23.60 8.37L24.29 8.42C24.41 8.44 24.48 8.44 24.49 8.45L24.70 7.44L22.62 7.44C22.62 6.70 22.62 6.06 22.63 5.53C22.64 5.38 22.64 5.19 22.64 4.96L21.40 4.96C21.26 5.16 21.13 5.37 21.00 5.60C20.73 6.08 20.60 6.49 20.60 6.82L20.60 7.50C20.52 7.51 20.41 7.54 20.24 7.57C20.03 7.64 19.88 7.69 19.80 7.73ZM32.63 12.74L32.42 12.79C32.37 12.80 32.32 12.81 32.27 12.81L32.22 12.81C32.05 12.80 31.93 12.71 31.86 12.50C31.81 12.36 31.78 12.14 31.78 11.87L31.78 9.69C31.78 8.86 31.64 8.27 31.30 7.87C30.93 7.44 30.32 7.22 29.37 7.22C28.93 7.22 28.45 7.29 27.94 7.44C27.38 7.60 26.91 7.83 26.53 8.11L26.73 8.84C27.01 8.62 27.29 8.45 27.58 8.32C27.99 8.12 28.38 8.02 28.73 8.02C29.13 8.02 29.41 8.16 29.57 8.43C29.69 8.64 29.76 8.97 29.76 9.42L29.76 10.11L27.35 10.90C26.73 11.10 26.38 11.27 26.17 11.47C25.96 11.69 25.89 11.94 25.89 12.36C25.89 12.84 26.06 13.20 26.42 13.42C26.74 13.64 27.21 13.74 27.83 13.74C28.20 13.74 28.59 13.67 29.00 13.53C29.36 13.41 29.67 13.24 29.93 13.05C30.11 13.45 30.53 13.72 31.17 13.72C31.53 13.72 31.86 13.68 32.16 13.59C32.42 13.52 32.63 13.44 32.76 13.35ZM28.51 12.82C27.96 12.82 27.74 12.67 27.74 12.14C27.74 11.91 27.85 11.73 28.08 11.58C28.27 11.46 28.63 11.32 28.99 11.19L29.76 10.90L29.76 12.38C29.63 12.50 29.43 12.61 29.15 12.70C28.89 12.78 28.67 12.82 28.51 12.82ZM36.30 10.64C36.30 10.08 36.45 9.51 36.73 9.06C37.02 8.59 37.41 8.31 37.86 8.31C38.81 8.31 39.19 8.90 39.19 10.19L39.19 11.09C39.19 11.46 39.19 11.79 39.17 12.10C39.14 12.68 39.11 13.16 39.06 13.53L41.34 13.53L41.29 13.09L41.28 12.93C41.24 12.37 41.22 11.73 41.22 11.00L41.22 9.79C41.22 9.02 41.05 8.42 40.72 8.01C40.29 7.48 39.61 7.22 38.66 7.22C38.21 7.22 37.72 7.38 37.29 7.64C36.88 7.90 36.53 8.25 36.34 8.62C36.36 8.17 36.38 7.84 36.40 7.63C36.40 7.64 36.41 7.55 36.43 7.33L34.14 7.51L34.16 7.69L34.21 8.20C34.26 8.79 34.28 9.43 34.28 10.09L34.28 10.91C34.28 11.30 34.27 11.65 34.26 11.96C34.23 12.60 34.19 13.13 34.14 13.53L36.43 13.53L36.41 13.31C36.39 13.17 36.38 12.97 36.37 12.72C36.32 12.04 36.30 11.35 36.30 10.64ZM43.43 10.91C43.43 11.30 43.43 11.65 43.41 11.96C43.39 12.60 43.34 13.13 43.29 13.53L45.58 13.53C45.56 13.36 45.53 13.11 45.51 12.80C45.47 12.23 45.45 11.61 45.45 10.91L45.45 5.53C45.45 5.13 45.46 4.76 45.47 4.42C45.49 3.75 45.53 3.19 45.58 2.72L43.29 2.90C43.32 3.08 43.34 3.35 43.36 3.69C43.41 4.36 43.43 5.03 43.43 5.70ZM51.04 7.22C50.38 7.22 49.77 7.32 49.22 7.53C48.59 7.77 48.11 8.12 47.77 8.57C47.38 9.10 47.18 9.75 47.18 10.51C47.18 11.59 47.59 12.42 48.30 12.97C48.95 13.50 49.87 13.76 50.87 13.76C51.27 13.76 51.68 13.68 52.11 13.52C52.50 13.38 52.81 13.22 52.95 13.06L52.81 12.34C52.62 12.47 52.40 12.58 52.15 12.67C51.77 12.82 51.39 12.89 51.03 12.89C50.58 12.89 50.16 12.69 49.85 12.32C49.51 11.92 49.30 11.33 49.29 10.58L49.29 10.43C49.29 10.39 49.30 10.35 49.31 10.28L52.62 10.28L53.07 10.28C53.18 10.28 53.33 10.28 53.52 10.28L53.90 10.28C53.98 10.29 54.07 10.29 54.19 10.29L54.33 9.54L54.19 9.54C54.12 9.55 54.03 9.55 53.88 9.55L53.53 9.55C53.45 9.55 53.35 9.55 53.24 9.55C53.52 9.44 53.68 9.21 53.68 8.72C53.68 8.38 53.53 8.08 53.23 7.83C52.97 7.63 52.63 7.47 52.18 7.36C51.81 7.27 51.43 7.22 51.04 7.22ZM51.00 8.09C51.64 8.09 52.04 8.42 52.04 8.97C52.04 9.18 51.95 9.33 51.78 9.42C51.65 9.49 51.48 9.53 51.27 9.53C50.85 9.53 50.54 9.53 50.33 9.52L49.38 9.52C49.50 9.05 49.73 8.68 50.04 8.44C50.32 8.21 50.67 8.09 51.00 8.09ZM56.93 13.40L57.56 13.67C57.39 13.88 57.19 14.13 56.97 14.43C56.62 14.95 56.30 15.44 56.01 15.94C55.81 16.30 55.62 16.64 55.45 16.96L55.37 17.12L55.42 17.40L56.22 17.39C56.29 17.21 56.48 16.87 56.79 16.37C57.20 15.72 57.56 15.19 57.86 14.79C58.31 14.18 58.70 13.73 59.02 13.43C59.31 13.15 59.61 12.83 59.93 12.47C60.54 11.77 60.97 11.07 61.23 10.36C61.42 9.86 61.51 9.30 61.51 8.69C61.51 8.53 61.51 8.41 61.50 8.34L61.49 8.16L61.45 7.74C61.42 7.62 61.42 7.55 61.41 7.51L60.19 7.34C60.23 7.47 60.28 7.64 60.32 7.85C60.36 8.08 60.38 8.34 60.38 8.66C60.38 8.75 60.38 8.93 60.37 9.18C60.30 9.77 60.06 10.42 59.63 11.13C59.40 11.53 59.07 11.98 58.65 12.47C58.14 11.02 57.75 9.92 57.48 9.16C57.40 8.95 57.34 8.74 57.29 8.53C57.18 8.12 57.09 7.76 57.04 7.44L54.64 7.44C54.69 7.55 54.75 7.67 54.82 7.83C54.85 7.92 54.89 7.99 54.91 8.04C55.05 8.37 55.22 8.78 55.41 9.28L55.72 10.10Z"></path></g><!----><g data-v-423bf9ae="" id="e072886d-abe4-4ba1-a618-a755324c4710" transform="matrix(2.8125,0,0,2.8125,0,0)" stroke="none" fill="#0A4EFB"><path d="M16 32c8.837 0 16-7.163 16-16S24.837 0 16 0 0 7.163 0 16s7.163 16 16 16zM14.817 6.421h2v8.886h8.887v2H14.817V6.421zm-5.959.437h2v14.283h14.283v2H8.858V6.858z"></path></g><!----><g data-v-423bf9ae="" id="42f69813-8565-49f2-b5bc-4da9935534c4" fill="white" transform="matrix(0.3823246053330047,0,0,0.3823246053330047,109.8929504690259,58.73832923294611)"><path d="M0.28 3.65L0.28 3.65L0.28 3.65Q0.28 3.50 0.67 3.50L0.67 3.50L0.67 3.50Q0.81 3.50 1.32 3.53L1.32 3.53L1.32 3.53Q1.82 3.56 2.25 3.56L2.25 3.56L2.25 3.56Q2.52 3.56 2.77 3.54L2.77 3.54L2.77 3.54Q3.01 3.53 3.49 3.53L3.49 3.53L3.49 3.53Q3.79 3.53 3.79 3.72L3.79 3.72L3.79 3.72Q3.79 3.96 3.30 3.96L3.30 3.96L3.30 3.96Q3.02 3.96 2.90 4.54L2.90 4.54L2.90 4.54Q2.77 5.11 2.77 5.71L2.77 5.71L2.77 6.23L2.77 6.23Q2.77 6.57 2.76 6.99L2.76 6.99L2.76 6.99Q2.74 7.42 2.74 7.52L2.74 7.52L2.74 7.52Q2.74 7.87 2.83 7.97L2.83 7.97L2.83 7.97Q2.91 8.06 3.22 8.06L3.22 8.06L3.22 8.06Q3.25 8.06 3.77 8.06L3.77 8.06L3.77 8.06Q4.28 8.05 5.52 8.05L5.52 8.05L5.52 8.05Q5.63 8.05 5.89 8.06L5.89 8.06L5.89 8.06Q6.16 8.06 6.77 8.07L6.77 8.07L6.77 8.07Q7.38 8.08 8.16 8.08L8.16 8.08L8.16 8.08Q8.26 8.08 8.29 7.84L8.29 7.84L8.29 7.84Q8.32 7.56 8.32 6.13L8.32 6.13L8.32 5.38L8.32 5.38Q8.32 4.83 8.20 4.51L8.20 4.51L8.20 4.51Q8.08 4.19 7.90 4.09L7.90 4.09L7.90 4.09Q7.73 3.99 7.55 3.96L7.55 3.96L7.55 3.96Q7.38 3.93 7.26 3.88L7.26 3.88L7.26 3.88Q7.14 3.84 7.14 3.70L7.14 3.70L7.14 3.70Q7.14 3.56 7.69 3.56L7.69 3.56L7.69 3.56Q7.83 3.56 8.29 3.57L8.29 3.57L8.29 3.57Q8.75 3.58 9.04 3.58L9.04 3.58L9.04 3.58Q9.18 3.58 9.52 3.57L9.52 3.57L9.52 3.57Q9.86 3.56 10.14 3.56L10.14 3.56L10.14 3.56Q10.46 3.56 10.46 3.74L10.46 3.74L10.46 3.74Q10.46 3.92 10.26 3.92L10.26 3.92L10.26 3.92Q9.87 3.92 9.67 4.16L9.67 4.16L9.67 4.16Q9.46 4.40 9.46 4.79L9.46 4.79L9.46 4.79Q9.46 5.25 9.44 6.42L9.44 6.42L9.44 6.42Q9.42 7.59 9.42 8.19L9.42 8.19L9.42 8.19Q9.42 8.51 9.41 9.20L9.41 9.20L9.41 9.20Q9.39 9.90 9.39 10.29L9.39 10.29L9.39 10.81L9.39 10.81Q9.39 11.23 9.42 11.58L9.42 11.58L9.42 11.58Q9.45 11.94 9.45 12.10L9.45 12.10L9.45 12.10Q9.45 13.01 10.63 13.13L10.63 13.13L10.63 13.13Q10.79 13.13 10.79 13.29L10.79 13.29L10.79 13.29Q10.79 13.38 10.65 13.41L10.65 13.41L10.65 13.41Q10.51 13.44 10.11 13.44L10.11 13.44L10.11 13.44Q9.95 13.44 9.60 13.40L9.60 13.40L9.60 13.40Q9.24 13.37 9.03 13.37L9.03 13.37L9.03 13.37Q8.78 13.37 8.42 13.40L8.42 13.40L8.42 13.40Q8.06 13.44 7.71 13.44L7.71 13.44L7.71 13.44Q7.55 13.44 7.48 13.44L7.48 13.44L7.48 13.44Q7.41 13.44 7.33 13.42L7.33 13.42L7.33 13.42Q7.25 13.40 7.23 13.36L7.23 13.36L7.23 13.36Q7.21 13.33 7.21 13.26L7.21 13.26L7.21 13.26Q7.21 13.17 7.35 13.10L7.35 13.10L7.35 13.10Q7.49 13.03 7.66 12.99L7.66 12.99L7.66 12.99Q7.83 12.95 7.99 12.83L7.99 12.83L7.99 12.83Q8.15 12.71 8.18 12.53L8.18 12.53L8.18 12.53Q8.27 12.03 8.27 11.51L8.27 11.51L8.27 11.51Q8.27 11.37 8.28 11.12L8.28 11.12L8.28 11.12Q8.29 10.86 8.29 10.75L8.29 10.75L8.29 10.75Q8.29 10.50 8.30 9.93L8.30 9.93L8.30 9.93Q8.32 9.35 8.32 9.03L8.32 9.03L8.32 9.03Q8.32 8.82 8.15 8.74L8.15 8.74L8.15 8.74Q7.98 8.65 7.43 8.65L7.43 8.65L7.43 8.65Q7.22 8.65 6.47 8.68L6.47 8.68L5.71 8.69L5.71 8.69Q5.10 8.69 4.33 8.67L4.33 8.67L4.33 8.67Q3.56 8.65 3.14 8.65L3.14 8.65L3.14 8.65Q2.93 8.65 2.86 8.74L2.86 8.74L2.86 8.74Q2.79 8.82 2.79 9.17L2.79 9.17L2.79 9.17Q2.79 9.52 2.76 10.08L2.76 10.08L2.76 10.08Q2.73 10.64 2.73 10.89L2.73 10.89L2.73 11.49L2.73 11.49Q2.73 12.10 2.84 12.39L2.84 12.39L2.84 12.39Q2.95 12.68 3.39 12.96L3.39 12.96L3.39 12.96Q3.50 13.03 3.99 13.03L3.99 13.03L3.99 13.03Q4.09 13.03 4.17 13.08L4.17 13.08L4.17 13.08Q4.26 13.13 4.26 13.19L4.26 13.19L4.26 13.19Q4.26 13.44 3.81 13.44L3.81 13.44L3.81 13.44Q3.39 13.44 3.12 13.41L3.12 13.41L3.12 13.41Q2.84 13.38 2.65 13.38L2.65 13.38L2.65 13.38Q2.25 13.38 1.81 13.42L1.81 13.42L1.81 13.42Q1.36 13.45 1.13 13.45L1.13 13.45L1.13 13.45Q0.48 13.45 0.48 13.24L0.48 13.24L0.48 13.24Q0.48 13.12 0.61 13.07L0.61 13.07L0.61 13.07Q0.74 13.02 0.91 13.00L0.91 13.00L0.91 13.00Q1.08 12.98 1.26 12.82L1.26 12.82L1.26 12.82Q1.44 12.66 1.51 12.35L1.51 12.35L1.51 12.35Q1.55 12.11 1.62 10.91L1.62 10.91L1.62 10.91Q1.69 9.70 1.69 8.61L1.69 8.61L1.69 7.81L1.69 7.81Q1.69 7.63 1.70 7.12L1.70 7.12L1.70 7.12Q1.71 6.61 1.71 6.30L1.71 6.30L1.71 6.30Q1.71 5.24 1.62 4.63L1.62 4.63L1.62 4.63Q1.58 4.28 1.25 4.09L1.25 4.09L1.25 4.09Q0.92 3.89 0.57 3.89L0.57 3.89L0.57 3.89Q0.43 3.89 0.36 3.80L0.36 3.80L0.36 3.80Q0.28 3.71 0.28 3.65ZM18.35 3.71L18.35 3.71L18.35 3.71Q18.35 3.50 18.75 3.50L18.75 3.50L18.75 3.50Q18.89 3.50 19.39 3.53L19.39 3.53L19.39 3.53Q19.89 3.56 20.33 3.56L20.33 3.56L20.33 3.56Q20.59 3.56 20.84 3.54L20.84 3.54L20.84 3.54Q21.08 3.53 21.56 3.53L21.56 3.53L21.56 3.53Q21.94 3.53 21.94 3.72L21.94 3.72L21.94 3.72Q21.94 3.84 21.29 4.10L21.29 4.10L21.29 4.10Q20.85 4.28 20.85 5.71L20.85 5.71L20.85 5.71Q20.85 7.60 20.82 9.05L20.82 9.05L20.82 9.05Q20.80 10.50 20.80 10.89L20.80 10.89L20.80 10.89Q20.80 12.07 21.15 12.59L21.15 12.59L21.15 12.59Q21.46 13.02 21.83 13.02L21.83 13.02L21.83 13.02Q21.85 13.02 21.97 13.03L21.97 13.03L21.97 13.03Q22.08 13.03 22.11 13.03L22.11 13.03L22.11 13.03Q22.20 13.03 22.30 13.08L22.30 13.08L22.30 13.08Q22.40 13.13 22.40 13.19L22.40 13.19L22.40 13.19Q22.40 13.34 22.32 13.39L22.32 13.39L22.32 13.39Q22.25 13.44 22.05 13.44L22.05 13.44L22.05 13.44Q21.63 13.44 21.27 13.41L21.27 13.41L21.27 13.41Q20.92 13.38 20.72 13.38L20.72 13.38L20.72 13.38Q20.33 13.38 19.87 13.42L19.87 13.42L19.87 13.42Q19.40 13.45 19.18 13.45L19.18 13.45L19.18 13.45Q18.55 13.45 18.55 13.24L18.55 13.24L18.55 13.24Q18.55 13.12 18.68 13.07L18.68 13.07L18.68 13.07Q18.82 13.02 18.98 13.00L18.98 13.00L18.98 13.00Q19.15 12.98 19.33 12.82L19.33 12.82L19.33 12.82Q19.52 12.66 19.59 12.35L19.59 12.35L19.59 12.35Q19.61 12.25 19.68 10.76L19.68 10.76L19.68 10.76Q19.74 9.27 19.74 8.61L19.74 8.61L19.74 7.81L19.74 7.81Q19.74 7.63 19.75 7.12L19.75 7.12L19.75 7.12Q19.75 6.61 19.75 6.30L19.75 6.30L19.75 5.66L19.75 5.66Q19.75 5.04 19.70 4.63L19.70 4.63L19.70 4.63Q19.66 4.30 19.33 4.12L19.33 4.12L19.33 4.12Q19.00 3.93 18.65 3.92L18.65 3.92L18.65 3.92Q18.35 3.91 18.35 3.71ZM30.28 8.83L30.28 8.83L30.28 8.83Q30.28 7.31 30.89 6.09L30.89 6.09L30.89 6.09Q31.50 4.87 32.76 4.12L32.76 4.12L32.76 4.12Q34.02 3.37 35.76 3.37L35.76 3.37L35.76 3.37Q36.43 3.37 37.02 3.48L37.02 3.48L37.02 3.48Q37.60 3.58 37.98 3.72L37.98 3.72L37.98 3.72Q38.36 3.86 38.64 4.01L38.64 4.01L38.64 4.01Q38.92 4.16 39.07 4.26L39.07 4.26L39.07 4.26Q39.21 4.37 39.24 4.37L39.24 4.37L39.24 4.37Q39.28 4.37 39.43 4.26L39.43 4.26L39.43 4.26Q39.58 4.16 39.63 4.16L39.63 4.16L39.63 4.16Q39.84 4.16 39.84 4.44L39.84 4.44L39.84 4.44Q39.86 4.84 39.91 5.29L39.91 5.29L39.91 5.29Q39.96 5.74 40.00 6.03L40.00 6.03L40.00 6.03Q40.04 6.33 40.04 6.38L40.04 6.38L40.04 6.38Q40.04 6.62 39.87 6.62L39.87 6.62L39.87 6.62Q39.70 6.62 39.63 6.45L39.63 6.45L39.63 6.45Q39.14 5.39 38.00 4.65L38.00 4.65L38.00 4.65Q36.85 3.92 35.63 3.92L35.63 3.92L35.63 3.92Q33.88 3.92 32.74 5.02L32.74 5.02L32.74 5.02Q31.60 6.12 31.60 8.06L31.60 8.06L31.60 8.06Q31.60 9.35 32.07 10.49L32.07 10.49L32.07 10.49Q32.55 11.62 33.52 12.36L33.52 12.36L33.52 12.36Q34.50 13.10 35.76 13.10L35.76 13.10L35.76 13.10Q36.83 13.10 37.71 12.61L37.71 12.61L37.71 12.61Q38.58 12.12 38.68 11.49L38.68 11.49L38.68 11.49Q38.72 11.16 38.72 9.73L38.72 9.73L38.72 9.73Q38.72 9.18 38.49 8.95L38.49 8.95L38.49 8.95Q38.32 8.78 37.87 8.72L37.87 8.72L37.87 8.72Q37.45 8.68 37.38 8.55L37.38 8.55L37.38 8.55Q37.35 8.50 37.35 8.41L37.35 8.41L37.35 8.41Q37.35 8.26 37.60 8.26L37.60 8.26L37.60 8.26Q37.79 8.26 38.39 8.29L38.39 8.29L38.39 8.29Q38.99 8.33 39.16 8.33L39.16 8.33L39.16 8.33Q39.44 8.33 39.76 8.32L39.76 8.32L39.76 8.32Q40.08 8.32 40.28 8.32L40.28 8.32L40.49 8.32L40.49 8.32Q40.71 8.32 40.71 8.44L40.71 8.44L40.71 8.44Q40.71 8.54 40.35 8.69L40.35 8.69L40.35 8.69Q40.00 8.85 39.96 9.09L39.96 9.09L39.96 9.09Q39.86 9.69 39.86 10.65L39.86 10.65L39.86 10.65Q39.86 11.07 39.87 11.40L39.87 11.40L39.87 11.40Q39.89 11.72 39.89 11.85L39.89 11.85L39.89 11.85Q39.90 11.98 39.91 12.08L39.91 12.08L39.91 12.08Q39.93 12.18 39.93 12.22L39.93 12.22L39.93 12.22Q39.93 12.29 39.82 12.33L39.82 12.33L39.82 12.33Q39.72 12.36 39.48 12.42L39.48 12.42L39.48 12.42Q39.24 12.49 39.05 12.60L39.05 12.60L38.95 12.66L38.95 12.66Q38.85 12.73 38.75 12.78L38.75 12.78L38.75 12.78Q38.65 12.84 38.49 12.92L38.49 12.92L38.49 12.92Q38.33 13.01 38.16 13.09L38.16 13.09L38.16 13.09Q38.00 13.17 37.79 13.26L37.79 13.26L37.79 13.26Q37.58 13.36 37.35 13.43L37.35 13.43L37.35 13.43Q37.13 13.50 36.89 13.55L36.89 13.55L36.89 13.55Q36.65 13.61 36.39 13.64L36.39 13.64L36.39 13.64Q36.13 13.68 35.88 13.68L35.88 13.68L35.88 13.68Q34.36 13.68 33.23 13.26L33.23 13.26L33.23 13.26Q32.10 12.85 31.49 12.14L31.49 12.14L31.49 12.14Q30.87 11.44 30.58 10.61L30.58 10.61L30.58 10.61Q30.28 9.79 30.28 8.83ZM48.40 3.65L48.40 3.65L48.40 3.65Q48.40 3.50 48.79 3.50L48.79 3.50L48.79 3.50Q48.93 3.50 49.43 3.53L49.43 3.53L49.43 3.53Q49.94 3.56 50.37 3.56L50.37 3.56L50.37 3.56Q50.64 3.56 50.88 3.54L50.88 3.54L50.88 3.54Q51.13 3.53 51.60 3.53L51.60 3.53L51.60 3.53Q51.91 3.53 51.91 3.72L51.91 3.72L51.91 3.72Q51.91 3.96 51.42 3.96L51.42 3.96L51.42 3.96Q51.14 3.96 51.02 4.54L51.02 4.54L51.02 4.54Q50.89 5.11 50.89 5.71L50.89 5.71L50.89 6.23L50.89 6.23Q50.89 6.57 50.88 6.99L50.88 6.99L50.88 6.99Q50.86 7.42 50.86 7.52L50.86 7.52L50.86 7.52Q50.86 7.87 50.95 7.97L50.95 7.97L50.95 7.97Q51.03 8.06 51.34 8.06L51.34 8.06L51.34 8.06Q51.37 8.06 51.88 8.06L51.88 8.06L51.88 8.06Q52.40 8.05 53.63 8.05L53.63 8.05L53.63 8.05Q53.75 8.05 54.01 8.06L54.01 8.06L54.01 8.06Q54.28 8.06 54.89 8.07L54.89 8.07L54.89 8.07Q55.50 8.08 56.28 8.08L56.28 8.08L56.28 8.08Q56.38 8.08 56.41 7.84L56.41 7.84L56.41 7.84Q56.43 7.56 56.43 6.13L56.43 6.13L56.43 5.38L56.43 5.38Q56.43 4.83 56.31 4.51L56.31 4.51L56.31 4.51Q56.20 4.19 56.02 4.09L56.02 4.09L56.02 4.09Q55.85 3.99 55.67 3.96L55.67 3.96L55.67 3.96Q55.50 3.93 55.38 3.88L55.38 3.88L55.38 3.88Q55.26 3.84 55.26 3.70L55.26 3.70L55.26 3.70Q55.26 3.56 55.80 3.56L55.80 3.56L55.80 3.56Q55.94 3.56 56.41 3.57L56.41 3.57L56.41 3.57Q56.87 3.58 57.16 3.58L57.16 3.58L57.16 3.58Q57.30 3.58 57.64 3.57L57.64 3.57L57.64 3.57Q57.97 3.56 58.25 3.56L58.25 3.56L58.25 3.56Q58.58 3.56 58.58 3.74L58.58 3.74L58.58 3.74Q58.58 3.92 58.38 3.92L58.38 3.92L58.38 3.92Q57.99 3.92 57.78 4.16L57.78 4.16L57.78 4.16Q57.58 4.40 57.58 4.79L57.58 4.79L57.58 4.79Q57.58 5.25 57.56 6.42L57.56 6.42L57.56 6.42Q57.54 7.59 57.54 8.19L57.54 8.19L57.54 8.19Q57.54 8.51 57.53 9.20L57.53 9.20L57.53 9.20Q57.51 9.90 57.51 10.29L57.51 10.29L57.51 10.81L57.51 10.81Q57.51 11.23 57.54 11.58L57.54 11.58L57.54 11.58Q57.57 11.94 57.57 12.10L57.57 12.10L57.57 12.10Q57.57 13.01 58.74 13.13L58.74 13.13L58.74 13.13Q58.91 13.13 58.91 13.29L58.91 13.29L58.91 13.29Q58.91 13.38 58.77 13.41L58.77 13.41L58.77 13.41Q58.63 13.44 58.23 13.44L58.23 13.44L58.23 13.44Q58.07 13.44 57.71 13.40L57.71 13.40L57.71 13.40Q57.36 13.37 57.15 13.37L57.15 13.37L57.15 13.37Q56.90 13.37 56.54 13.40L56.54 13.40L56.54 13.40Q56.18 13.44 55.83 13.44L55.83 13.44L55.83 13.44Q55.66 13.44 55.59 13.44L55.59 13.44L55.59 13.44Q55.52 13.44 55.45 13.42L55.45 13.42L55.45 13.42Q55.37 13.40 55.35 13.36L55.35 13.36L55.35 13.36Q55.33 13.33 55.33 13.26L55.33 13.26L55.33 13.26Q55.33 13.17 55.47 13.10L55.47 13.10L55.47 13.10Q55.61 13.03 55.78 12.99L55.78 12.99L55.78 12.99Q55.94 12.95 56.10 12.83L56.10 12.83L56.10 12.83Q56.27 12.71 56.29 12.53L56.29 12.53L56.29 12.53Q56.39 12.03 56.39 11.51L56.39 11.51L56.39 11.51Q56.39 11.37 56.40 11.12L56.40 11.12L56.40 11.12Q56.41 10.86 56.41 10.75L56.41 10.75L56.41 10.75Q56.41 10.50 56.42 9.93L56.42 9.93L56.42 9.93Q56.43 9.35 56.43 9.03L56.43 9.03L56.43 9.03Q56.43 8.82 56.27 8.74L56.27 8.74L56.27 8.74Q56.10 8.65 55.55 8.65L55.55 8.65L55.55 8.65Q55.34 8.65 54.59 8.68L54.59 8.68L53.83 8.69L53.83 8.69Q53.21 8.69 52.44 8.67L52.44 8.67L52.44 8.67Q51.67 8.65 51.25 8.65L51.25 8.65L51.25 8.65Q51.04 8.65 50.97 8.74L50.97 8.74L50.97 8.74Q50.90 8.82 50.90 9.17L50.90 9.17L50.90 9.17Q50.90 9.52 50.88 10.08L50.88 10.08L50.88 10.08Q50.85 10.64 50.85 10.89L50.85 10.89L50.85 11.49L50.85 11.49Q50.85 12.10 50.96 12.39L50.96 12.39L50.96 12.39Q51.07 12.68 51.51 12.96L51.51 12.96L51.51 12.96Q51.62 13.03 52.11 13.03L52.11 13.03L52.11 13.03Q52.21 13.03 52.29 13.08L52.29 13.08L52.29 13.08Q52.37 13.13 52.37 13.19L52.37 13.19L52.37 13.19Q52.37 13.44 51.93 13.44L51.93 13.44L51.93 13.44Q51.51 13.44 51.23 13.41L51.23 13.41L51.23 13.41Q50.96 13.38 50.76 13.38L50.76 13.38L50.76 13.38Q50.37 13.38 49.92 13.42L49.92 13.42L49.92 13.42Q49.48 13.45 49.25 13.45L49.25 13.45L49.25 13.45Q48.59 13.45 48.59 13.24L48.59 13.24L48.59 13.24Q48.59 13.12 48.73 13.07L48.73 13.07L48.73 13.07Q48.86 13.02 49.03 13.00L49.03 13.00L49.03 13.00Q49.20 12.98 49.38 12.82L49.38 12.82L49.38 12.82Q49.56 12.66 49.63 12.35L49.63 12.35L49.63 12.35Q49.67 12.11 49.74 10.91L49.74 10.91L49.74 10.91Q49.81 9.70 49.81 8.61L49.81 8.61L49.81 7.81L49.81 7.81Q49.81 7.63 49.82 7.12L49.82 7.12L49.82 7.12Q49.83 6.61 49.83 6.30L49.83 6.30L49.83 6.30Q49.83 5.24 49.74 4.63L49.74 4.63L49.74 4.63Q49.70 4.28 49.37 4.09L49.37 4.09L49.37 4.09Q49.04 3.89 48.69 3.89L48.69 3.89L48.69 3.89Q48.55 3.89 48.47 3.80L48.47 3.80L48.47 3.80Q48.40 3.71 48.40 3.65ZM66.81 11.41L66.81 11.41L66.81 11.26L66.81 11.26Q66.81 10.85 66.94 10.74L66.94 10.74L66.94 10.74Q67.07 10.63 67.61 10.47L67.61 10.47L67.61 10.47Q68.35 10.25 68.92 10.04L68.92 10.04L68.92 10.04Q69.50 9.84 69.70 9.76L69.70 9.76L69.70 9.76Q69.90 9.69 70.03 9.69L70.03 9.69L70.03 9.69Q70.34 9.69 70.34 10.16L70.34 10.16L70.34 10.25L70.34 10.25Q70.34 10.37 70.33 10.44L70.33 10.44L70.33 10.44Q70.32 10.51 70.27 10.58L70.27 10.58L70.27 10.58Q70.22 10.65 70.19 10.68L70.19 10.68L70.19 10.68Q70.15 10.71 70.02 10.77L70.02 10.77L70.02 10.77Q69.89 10.82 69.78 10.85L69.78 10.85L69.78 10.85Q69.68 10.88 69.43 10.95L69.43 10.95L69.43 10.95Q69.19 11.02 68.98 11.09L68.98 11.09L68.98 11.09Q68.59 11.21 68.20 11.35L68.20 11.35L68.20 11.35Q67.82 11.49 67.64 11.56L67.64 11.56L67.64 11.56Q67.47 11.62 67.31 11.66L67.31 11.66L67.31 11.66Q67.16 11.70 67.03 11.70L67.03 11.70L67.03 11.70Q66.81 11.70 66.81 11.41ZM78.58 8.69L78.58 8.69L78.58 8.69Q78.58 6.30 79.91 4.82L79.91 4.82L79.91 4.82Q81.23 3.33 84 3.33L84 3.33L84 3.33Q85.16 3.33 86.09 3.71L86.09 3.71L86.09 3.71Q87.02 4.09 87.56 4.64L87.56 4.64L87.56 4.64Q88.10 5.19 88.47 5.90L88.47 5.90L88.47 5.90Q88.83 6.61 88.96 7.20L88.96 7.20L88.96 7.20Q89.08 7.78 89.08 8.30L89.08 8.30L89.08 8.30Q89.08 9.30 88.75 10.30L88.75 10.30L88.75 10.30Q88.41 11.30 87.70 12.10L87.70 12.10L87.70 12.10Q87.00 12.91 86.09 13.16L86.09 13.16L86.09 13.16Q85.09 13.44 85.09 13.48L85.09 13.48L85.09 13.48Q85.09 13.64 85.36 13.75L85.36 13.75L85.36 13.75Q85.41 13.78 85.76 13.93L85.76 13.93L85.76 13.93Q86.10 14.08 86.23 14.14L86.23 14.14L86.23 14.14Q86.35 14.20 86.70 14.35L86.70 14.35L86.70 14.35Q87.05 14.50 87.24 14.57L87.24 14.57L87.24 14.57Q87.43 14.64 87.75 14.77L87.75 14.77L87.75 14.77Q88.07 14.90 88.29 14.96L88.29 14.96L88.29 14.96Q88.51 15.02 88.77 15.09L88.77 15.09L88.77 15.09Q89.04 15.16 89.26 15.19L89.26 15.19L89.26 15.19Q89.47 15.22 89.66 15.22L89.66 15.22L89.66 15.22Q90.06 15.22 90.30 15.10L90.30 15.10L90.30 15.10Q90.54 14.98 90.67 14.87L90.67 14.87L90.67 14.87Q90.80 14.76 90.96 14.76L90.96 14.76L90.96 14.76Q91 14.76 91.05 14.82L91.05 14.82L91.05 14.82Q91.10 14.88 91.10 14.92L91.10 14.92L91.10 14.92Q91.10 15.41 90.34 15.79L90.34 15.79L90.34 15.79Q89.59 16.16 88.66 16.16L88.66 16.16L88.66 16.16Q87.78 16.16 86.18 15.44L86.18 15.44L86.18 15.44Q84.57 14.73 83.17 14.01L83.17 14.01L83.17 14.01Q81.76 13.30 81.34 13.30L81.34 13.30L81.34 13.30Q80.70 13.30 80.39 13.75L80.39 13.75L80.39 13.75Q80.08 14.20 80.08 14.78L80.08 14.78L80.08 15.04L80.08 15.04Q80.08 15.40 79.83 15.40L79.83 15.40L79.83 15.40Q79.69 15.40 79.59 15.22L79.59 15.22L79.59 15.22Q79.49 15.04 79.49 14.81L79.49 14.81L79.49 14.81Q79.49 14.20 79.77 13.65L79.77 13.65L79.77 13.65Q80.05 13.10 80.39 12.87L80.39 12.87L80.39 12.87Q80.70 12.64 80.70 12.61L80.70 12.61L80.70 12.61Q80.70 12.56 80.39 12.35L80.39 12.35L80.39 12.35Q78.58 11.05 78.58 8.69ZM79.86 7.98L79.86 7.98L79.86 7.98Q79.86 9.88 80.89 11.31L80.89 11.31L80.89 11.31Q81.44 12.08 82.45 12.56L82.45 12.56L82.45 12.56Q83.47 13.05 84.22 13.05L84.22 13.05L84.22 13.05Q85.20 13.05 86.24 12.52L86.24 12.52L86.24 12.52Q86.83 12.21 87.41 11.30L87.41 11.30L87.41 11.30Q87.99 10.40 87.99 9.24L87.99 9.24L87.99 9.24Q87.99 6.99 86.69 5.44L86.69 5.44L86.69 5.44Q85.39 3.89 83.52 3.89L83.52 3.89L83.52 3.89Q81.98 3.89 80.92 4.93L80.92 4.93L80.92 4.93Q79.86 5.96 79.86 7.98ZM96.98 3.68L96.98 3.68L96.98 3.68Q96.98 3.61 96.99 3.58L96.99 3.58L96.99 3.58Q97.01 3.56 97.08 3.53L97.08 3.53L97.08 3.53Q97.15 3.50 97.30 3.50L97.30 3.50L97.30 3.50Q97.45 3.50 97.94 3.53L97.94 3.53L97.94 3.53Q98.43 3.56 98.88 3.56L98.88 3.56L98.88 3.56Q99.16 3.56 99.39 3.54L99.39 3.54L99.39 3.54Q99.62 3.53 100.20 3.53L100.20 3.53L100.20 3.53Q100.49 3.53 100.49 3.72L100.49 3.72L100.49 3.72Q100.49 3.85 100.39 3.88L100.39 3.88L100.39 3.88Q100.30 3.91 100.15 3.92L100.15 3.92L100.15 3.92Q100.00 3.93 99.85 4.02L99.85 4.02L99.85 4.02Q99.71 4.10 99.61 4.43L99.61 4.43L99.61 4.43Q99.51 4.76 99.51 5.32L99.51 5.32L99.51 5.71L99.51 5.71Q99.51 6.37 99.50 7.37L99.50 7.37L99.50 7.37Q99.50 8.37 99.50 8.74L99.50 8.74L99.50 8.74Q99.50 9.17 99.50 9.39L99.50 9.39L99.50 9.39Q99.51 9.62 99.54 10.04L99.54 10.04L99.54 10.04Q99.57 10.47 99.62 10.72L99.62 10.72L99.62 10.72Q99.67 10.96 99.78 11.32L99.78 11.32L99.78 11.32Q99.89 11.68 100.05 11.89L100.05 11.89L100.05 11.89Q100.21 12.10 100.46 12.35L100.46 12.35L100.46 12.35Q100.70 12.60 101.02 12.73L101.02 12.73L101.02 12.73Q101.35 12.87 101.78 12.96L101.78 12.96L101.78 12.96Q102.21 13.05 102.75 13.05L102.75 13.05L102.75 13.05Q103.19 13.05 103.45 13.03L103.45 13.03L103.45 13.03Q103.70 13.02 104.14 12.94L104.14 12.94L104.14 12.94Q104.58 12.87 104.84 12.72L104.84 12.72L104.84 12.72Q105.10 12.57 105.43 12.27L105.43 12.27L105.43 12.27Q105.76 11.97 105.94 11.54L105.94 11.54L105.94 11.54Q106.12 11.10 106.25 10.43L106.25 10.43L106.25 10.43Q106.37 9.76 106.37 8.90L106.37 8.90L106.37 8.90Q106.37 7.49 106.36 6.75L106.36 6.75L106.36 6.75Q106.36 6.01 106.36 5.94L106.36 5.94L106.36 5.94Q106.36 5.45 106.34 5.17L106.34 5.17L106.34 5.17Q106.32 4.89 106.20 4.55L106.20 4.55L106.20 4.55Q106.08 4.21 105.85 4.06L105.85 4.06L105.85 4.06Q105.71 3.96 105.49 3.93L105.49 3.93L105.49 3.93Q105.27 3.89 105.13 3.87L105.13 3.87L105.13 3.87Q104.99 3.85 104.99 3.75L104.99 3.75L104.99 3.75Q104.99 3.53 105.27 3.53L105.27 3.53L105.27 3.53Q105.35 3.53 105.81 3.54L105.81 3.54L105.81 3.54Q106.27 3.56 106.34 3.56L106.34 3.56L106.34 3.56Q106.68 3.56 107.06 3.54L107.06 3.54L107.06 3.54Q107.44 3.51 107.53 3.51L107.53 3.51L107.53 3.51Q107.83 3.51 107.83 3.70L107.83 3.70L107.83 3.70Q107.83 3.81 107.53 3.98L107.53 3.98L107.53 3.98Q107.23 4.16 107.16 4.30L107.16 4.30L107.16 4.30Q107.00 4.59 107.00 5.22L107.00 5.22L107.00 5.22Q107.00 5.32 107.01 5.62L107.01 5.62L107.01 5.62Q107.02 5.92 107.02 6.16L107.02 6.16L107.02 6.16Q107.02 8.85 106.79 10.28L106.79 10.28L106.79 10.28Q106.57 11.70 106.11 12.36L106.11 12.36L106.11 12.36Q105.66 13.01 104.75 13.40L104.75 13.40L104.75 13.40Q104.01 13.71 102.75 13.71L102.75 13.71L102.75 13.71Q100.41 13.71 99.43 12.81L99.43 12.81L99.43 12.81Q98.66 12.10 98.48 11.09L98.48 11.09L98.48 11.09Q98.29 10.09 98.29 7.64L98.29 7.64L98.29 7.41L98.29 7.41Q98.29 6.86 98.31 6.20L98.31 6.20L98.31 6.20Q98.32 5.54 98.32 5.39L98.32 5.39L98.32 5.39Q98.32 4.62 98.14 4.33L98.14 4.33L98.14 4.33Q97.96 4.05 97.29 3.95L97.29 3.95L97.29 3.95Q96.98 3.91 96.98 3.68ZM114.56 13.33L114.56 13.33L114.56 13.33Q114.56 13.13 114.77 13.06L114.77 13.06L114.77 13.06Q115.22 12.89 115.56 12.31L115.56 12.31L115.56 12.31Q115.89 11.73 117.22 8.83L117.22 8.83L117.22 8.83Q118.59 5.87 119.64 3.63L119.64 3.63L119.64 3.63Q119.74 3.42 119.82 3.36L119.82 3.36L119.82 3.36Q119.90 3.30 120.06 3.30L120.06 3.30L120.06 3.30Q120.19 3.30 120.23 3.36L120.23 3.36L120.23 3.36Q120.27 3.42 120.41 3.82L120.41 3.82L120.41 3.82Q120.50 4.06 120.56 4.23L120.56 4.23L120.56 4.23Q120.62 4.40 120.76 4.77L120.76 4.77L120.76 4.77Q120.90 5.15 121.07 5.56L121.07 5.56L121.07 5.56Q121.52 6.66 122.62 9.22L122.62 9.22L122.62 9.22Q123.72 11.77 123.82 11.98L123.82 11.98L123.82 11.98Q124.05 12.46 124.35 12.71L124.35 12.71L124.35 12.71Q124.64 12.95 124.86 12.97L124.86 12.97L124.86 12.97Q125.08 12.99 125.22 13.04L125.22 13.04L125.22 13.04Q125.37 13.09 125.37 13.26L125.37 13.26L125.37 13.26Q125.37 13.47 124.99 13.47L124.99 13.47L124.99 13.47Q124.84 13.47 124.39 13.43L124.39 13.43L124.39 13.43Q123.94 13.38 123.73 13.38L123.73 13.38L123.73 13.38Q123.47 13.38 123.05 13.41L123.05 13.41L123.05 13.41Q122.63 13.44 122.43 13.44L122.43 13.44L122.43 13.44Q122.00 13.44 121.88 13.40L121.88 13.40L121.88 13.40Q121.76 13.37 121.76 13.24L121.76 13.24L121.76 13.24Q121.76 13.15 121.87 13.08L121.87 13.08L121.87 13.08Q121.98 13.02 122.11 13.00L122.11 13.00L122.11 13.00Q122.23 12.98 122.35 12.87L122.35 12.87L122.35 12.87Q122.46 12.77 122.46 12.59L122.46 12.59L122.46 12.59Q122.46 12.28 122.11 11.33L122.11 11.33L122.11 11.33Q121.76 10.37 121.52 9.93L121.52 9.93L121.52 9.93Q121.39 9.69 120.95 9.69L120.95 9.69L120.95 9.69Q120.88 9.69 120.33 9.70L120.33 9.70L120.33 9.70Q119.78 9.72 119.25 9.72L119.25 9.72L118.51 9.72L118.51 9.72Q117.88 9.72 117.72 9.79L117.72 9.79L117.72 9.79Q117.56 9.86 117.43 10.12L117.43 10.12L117.43 10.12Q117.35 10.30 117.15 10.70L117.15 10.70L117.15 10.70Q116.96 11.10 116.89 11.26L116.89 11.26L116.89 11.26Q116.82 11.41 116.71 11.65L116.71 11.65L116.71 11.65Q116.61 11.90 116.57 12.05L116.57 12.05L116.57 12.05Q116.54 12.19 116.54 12.31L116.54 12.31L116.54 12.31Q116.54 12.63 116.70 12.80L116.70 12.80L116.70 12.80Q116.86 12.96 117.05 12.98L117.05 12.98L117.05 12.98Q117.25 13.01 117.41 13.06L117.41 13.06L117.41 13.06Q117.57 13.12 117.57 13.26L117.57 13.26L117.57 13.26Q117.57 13.36 117.53 13.40L117.53 13.40L117.53 13.40Q117.49 13.45 117.33 13.45L117.33 13.45L117.33 13.45Q117.25 13.45 116.85 13.45L116.85 13.45L116.85 13.45Q116.45 13.44 116.17 13.44L116.17 13.44L116.17 13.44Q115.86 13.44 115.48 13.47L115.48 13.47L115.48 13.47Q115.09 13.50 114.97 13.50L114.97 13.50L114.97 13.50Q114.56 13.50 114.56 13.33ZM118.08 8.71L118.08 8.71L118.08 8.71Q118.08 8.89 118.20 8.93L118.20 8.93L118.20 8.93Q118.33 8.97 118.79 8.97L118.79 8.97L119.22 8.97L120.55 8.96L120.55 8.96Q121.10 8.96 121.10 8.74L121.10 8.74L121.10 8.74Q121.10 8.55 120.41 7.01L120.41 7.01L120.41 7.01Q119.73 5.46 119.55 5.46L119.55 5.46L119.55 5.46Q119.42 5.46 118.75 7.01L118.75 7.01L118.75 7.01Q118.08 8.55 118.08 8.71ZM132.93 3.71L132.93 3.71L132.93 3.71Q132.93 3.46 133.31 3.46L133.31 3.46L133.31 3.46Q133.36 3.46 133.49 3.47L133.49 3.47L133.49 3.47Q133.62 3.49 133.69 3.49L133.69 3.49L133.69 3.49Q133.83 3.49 134.21 3.51L134.21 3.51L134.21 3.51Q134.60 3.54 134.90 3.54L134.90 3.54L134.90 3.54Q135.34 3.54 135.83 3.51L135.83 3.51L135.83 3.51Q136.32 3.49 136.37 3.49L136.37 3.49L136.37 3.49Q136.61 3.49 136.61 3.63L136.61 3.63L136.61 3.63Q136.61 3.82 136.44 3.88L136.44 3.88L136.44 3.88Q136.28 3.95 136.07 3.97L136.07 3.97L136.07 3.97Q135.87 3.99 135.68 4.28L135.68 4.28L135.68 4.28Q135.49 4.56 135.46 5.14L135.46 5.14L135.46 5.14Q135.44 5.68 135.39 8.19L135.39 8.19L135.39 8.19Q135.35 10.70 135.35 10.99L135.35 10.99L135.35 11.55L135.35 11.55Q135.35 12.56 135.69 12.66L135.69 12.66L135.69 12.66Q136.04 12.77 136.29 12.77L136.29 12.77L136.29 12.77Q137.34 12.77 138.13 12.67L138.13 12.67L138.13 12.67Q138.92 12.57 139.32 12.42L139.32 12.42L139.32 12.42Q139.72 12.28 139.99 12.10L139.99 12.10L139.99 12.10Q140.25 11.93 140.33 11.78L140.33 11.78L140.33 11.78Q140.41 11.63 140.48 11.54L140.48 11.54L140.48 11.54Q140.56 11.44 140.64 11.44L140.64 11.44L140.64 11.44Q140.81 11.44 140.81 11.68L140.81 11.68L140.81 11.68Q140.81 12.28 140.21 12.89L140.21 12.89L140.21 12.89Q139.61 13.51 139.16 13.51L139.16 13.51L139.16 13.51Q138.15 13.51 136.88 13.44L136.88 13.44L136.88 13.44Q135.62 13.37 135.31 13.37L135.31 13.37L135.31 13.37Q134.92 13.37 134.41 13.43L134.41 13.43L134.41 13.43Q133.90 13.48 133.56 13.48L133.56 13.48L133.56 13.48Q133.15 13.48 133.15 13.31L133.15 13.31L133.15 13.31Q133.15 13.22 133.23 13.15L133.23 13.15L133.23 13.15Q133.31 13.09 133.38 13.09L133.38 13.09L133.38 13.09Q133.59 13.09 133.78 12.95L133.78 12.95L133.78 12.95Q134.04 12.75 134.15 12.23L134.15 12.23L134.15 12.23Q134.26 11.70 134.26 10.21L134.26 10.21L134.26 8.47L134.26 8.47Q134.26 8.09 134.28 7.29L134.28 7.29L134.28 7.29Q134.30 6.50 134.30 6.05L134.30 6.05L134.30 6.05Q134.30 5.67 134.27 4.77L134.27 4.77L134.27 4.77Q134.26 4.37 133.92 4.14L133.92 4.14L133.92 4.14Q133.59 3.92 133.14 3.91L133.14 3.91L133.14 3.91Q133.00 3.91 132.96 3.86L132.96 3.86L132.96 3.86Q132.93 3.81 132.93 3.71ZM148.37 3.71L148.37 3.71L148.37 3.71Q148.37 3.50 148.76 3.50L148.76 3.50L148.76 3.50Q148.90 3.50 149.41 3.53L149.41 3.53L149.41 3.53Q149.91 3.56 150.35 3.56L150.35 3.56L150.35 3.56Q150.61 3.56 150.86 3.54L150.86 3.54L150.86 3.54Q151.10 3.53 151.58 3.53L151.58 3.53L151.58 3.53Q151.96 3.53 151.96 3.72L151.96 3.72L151.96 3.72Q151.96 3.84 151.31 4.10L151.31 4.10L151.31 4.10Q150.86 4.28 150.86 5.71L150.86 5.71L150.86 5.71Q150.86 7.60 150.84 9.05L150.84 9.05L150.84 9.05Q150.82 10.50 150.82 10.89L150.82 10.89L150.82 10.89Q150.82 12.07 151.17 12.59L151.17 12.59L151.17 12.59Q151.48 13.02 151.84 13.02L151.84 13.02L151.84 13.02Q151.87 13.02 151.98 13.03L151.98 13.03L151.98 13.03Q152.10 13.03 152.12 13.03L152.12 13.03L152.12 13.03Q152.22 13.03 152.32 13.08L152.32 13.08L152.32 13.08Q152.42 13.13 152.42 13.19L152.42 13.19L152.42 13.19Q152.42 13.34 152.34 13.39L152.34 13.39L152.34 13.39Q152.26 13.44 152.07 13.44L152.07 13.44L152.07 13.44Q151.65 13.44 151.29 13.41L151.29 13.41L151.29 13.41Q150.93 13.38 150.74 13.38L150.74 13.38L150.74 13.38Q150.35 13.38 149.88 13.42L149.88 13.42L149.88 13.42Q149.42 13.45 149.20 13.45L149.20 13.45L149.20 13.45Q148.57 13.45 148.57 13.24L148.57 13.24L148.57 13.24Q148.57 13.12 148.70 13.07L148.70 13.07L148.70 13.07Q148.83 13.02 149.00 13.00L149.00 13.00L149.00 13.00Q149.17 12.98 149.35 12.82L149.35 12.82L149.35 12.82Q149.53 12.66 149.60 12.35L149.60 12.35L149.60 12.35Q149.63 12.25 149.69 10.76L149.69 10.76L149.69 10.76Q149.76 9.27 149.76 8.61L149.76 8.61L149.76 7.81L149.76 7.81Q149.76 7.63 149.76 7.12L149.76 7.12L149.76 7.12Q149.77 6.61 149.77 6.30L149.77 6.30L149.77 5.66L149.77 5.66Q149.77 5.04 149.72 4.63L149.72 4.63L149.72 4.63Q149.67 4.30 149.34 4.12L149.34 4.12L149.34 4.12Q149.02 3.93 148.67 3.92L148.67 3.92L148.67 3.92Q148.37 3.91 148.37 3.71ZM159.96 5.32L159.96 5.32L159.96 5.32Q159.96 4.76 160.10 3.88L160.10 3.88L160.10 3.88Q160.10 3.85 160.11 3.78L160.11 3.78L160.11 3.78Q160.12 3.71 160.13 3.69L160.13 3.69L160.13 3.69Q160.13 3.67 160.14 3.62L160.14 3.62L160.14 3.62Q160.15 3.57 160.16 3.55L160.16 3.55L160.16 3.55Q160.17 3.53 160.19 3.49L160.19 3.49L160.19 3.49Q160.22 3.46 160.24 3.44L160.24 3.44L160.24 3.44Q160.27 3.43 160.31 3.42L160.31 3.42L160.31 3.42Q160.36 3.40 160.41 3.39L160.41 3.39L160.41 3.39Q160.47 3.39 160.54 3.39L160.54 3.39L160.54 3.39Q160.76 3.39 161.72 3.44L161.72 3.44L161.72 3.44Q162.68 3.50 164.49 3.50L164.49 3.50L164.49 3.50Q167.57 3.50 168.80 3.43L168.80 3.43L168.80 3.43Q168.81 3.43 168.85 3.42L168.85 3.42L168.85 3.42Q168.88 3.42 168.90 3.42L168.90 3.42L168.90 3.42Q169.05 3.42 169.11 3.50L169.11 3.50L169.11 3.50Q169.16 3.58 169.16 3.65L169.16 3.65L169.16 3.65Q169.16 3.75 169.20 4.24L169.20 4.24L169.20 4.24Q169.25 4.73 169.25 4.79L169.25 4.79L169.25 4.79Q169.25 5.14 169.20 5.23L169.20 5.23L169.20 5.23Q169.16 5.32 169.02 5.32L169.02 5.32L169.02 5.32Q168.91 5.32 168.87 5.15L168.87 5.15L168.87 5.15Q168.76 4.75 168.67 4.60L168.67 4.60L168.67 4.60Q168.59 4.45 168.31 4.34L168.31 4.34L168.31 4.34Q168.03 4.23 167.45 4.23L167.45 4.23L165.63 4.23L165.63 4.23Q165.30 4.23 165.22 4.36L165.22 4.36L165.22 4.36Q165.14 4.49 165.14 5.12L165.14 5.12L165.14 5.81L165.14 5.81Q165.14 7.69 165.12 9.11L165.12 9.11L165.12 9.11Q165.10 10.54 165.10 10.93L165.10 10.93L165.10 10.93Q165.10 11.13 165.09 11.43L165.09 11.43L165.09 11.43Q165.09 11.73 165.09 11.84L165.09 11.84L165.09 11.84Q165.09 12.45 165.28 12.64L165.28 12.64L165.28 12.64Q165.47 12.81 165.69 12.90L165.69 12.90L165.69 12.90Q165.91 12.99 166.07 13.01L166.07 13.01L166.07 13.01Q166.24 13.02 166.35 13.08L166.35 13.08L166.35 13.08Q166.46 13.13 166.46 13.26L166.46 13.26L166.46 13.26Q166.46 13.41 166.39 13.45L166.39 13.45L166.39 13.45Q166.32 13.50 166.12 13.50L166.12 13.50L166.12 13.50Q165.96 13.50 165.38 13.44L165.38 13.44L165.38 13.44Q164.81 13.38 164.57 13.38L164.57 13.38L164.57 13.38Q164.40 13.38 163.89 13.43L163.89 13.43L163.89 13.43Q163.38 13.48 163.14 13.48L163.14 13.48L163.14 13.48Q162.62 13.48 162.62 13.26L162.62 13.26L162.62 13.26Q162.62 13.12 162.71 13.07L162.71 13.07L162.71 13.07Q162.79 13.02 163.04 12.98L163.04 12.98L163.04 12.98Q163.28 12.95 163.35 12.94L163.35 12.94L163.35 12.94Q163.83 12.82 163.88 12.38L163.88 12.38L163.88 12.38Q164.02 11.14 164.02 7.08L164.02 7.08L164.01 4.58L164.01 4.58Q164.01 4.31 163.86 4.25L163.86 4.25L163.86 4.25Q163.70 4.19 162.95 4.19L162.95 4.19L162.95 4.19Q161.97 4.19 161.47 4.24L161.47 4.24L161.47 4.24Q160.97 4.30 160.89 4.35L160.89 4.35L160.89 4.35Q160.80 4.40 160.69 4.54L160.69 4.54L160.69 4.54Q160.57 4.70 160.49 4.91L160.49 4.91L160.49 4.91Q160.41 5.11 160.39 5.24L160.39 5.24L160.39 5.24Q160.37 5.38 160.31 5.47L160.31 5.47L160.31 5.47Q160.24 5.56 160.12 5.56L160.12 5.56L160.12 5.56Q159.96 5.56 159.96 5.32ZM176.81 3.81L176.81 3.81L176.81 3.81Q176.81 3.65 176.97 3.61L176.97 3.61L176.97 3.61Q177.13 3.57 177.67 3.57L177.67 3.57L177.67 3.57Q177.76 3.57 178.06 3.58L178.06 3.58L178.06 3.58Q178.36 3.60 178.49 3.60L178.49 3.60L178.49 3.60Q178.64 3.60 179.05 3.59L179.05 3.59L179.05 3.59Q179.47 3.58 179.68 3.58L179.68 3.58L179.68 3.58Q180.38 3.58 180.38 3.75L180.38 3.75L180.38 3.75Q180.38 3.91 180.08 4.01L180.08 4.01L180.08 4.01Q179.79 4.12 179.79 4.24L179.79 4.24L179.79 4.24Q179.79 4.38 179.88 4.61L179.88 4.61L179.88 4.61Q179.97 4.83 180.06 4.97L180.06 4.97L180.06 4.97Q180.15 5.11 180.33 5.38L180.33 5.38L180.33 5.38Q180.52 5.64 180.54 5.70L180.54 5.70L180.54 5.70Q181.02 6.45 181.53 7.14L181.53 7.14L181.53 7.14Q182.04 7.83 182.11 7.83L182.11 7.83L182.11 7.83Q182.20 7.83 182.32 7.66L182.32 7.66L182.32 7.66Q182.45 7.50 182.67 7.13L182.67 7.13L182.67 7.13Q182.90 6.75 183.05 6.52L183.05 6.52L183.05 6.52Q183.09 6.45 183.25 6.22L183.25 6.22L183.25 6.22Q183.41 5.98 183.48 5.88L183.48 5.88L183.48 5.88Q183.54 5.78 183.67 5.58L183.67 5.58L183.67 5.58Q183.79 5.38 183.85 5.27L183.85 5.27L183.85 5.27Q183.90 5.17 183.98 5.02L183.98 5.02L183.98 5.02Q184.06 4.87 184.09 4.77L184.09 4.77L184.09 4.77Q184.11 4.68 184.11 4.59L184.11 4.59L184.11 4.59Q184.11 4.14 183.64 4.03L183.64 4.03L183.64 4.03Q183.58 4.02 183.48 4.00L183.48 4.00L183.48 4.00Q183.37 3.99 183.32 3.98L183.32 3.98L183.32 3.98Q183.27 3.96 183.20 3.93L183.20 3.93L183.20 3.93Q183.13 3.91 183.11 3.86L183.11 3.86L183.11 3.86Q183.08 3.81 183.08 3.74L183.08 3.74L183.08 3.74Q183.08 3.57 183.47 3.57L183.47 3.57L183.47 3.57Q183.54 3.57 183.73 3.58L183.73 3.58L183.73 3.58Q183.92 3.58 184.04 3.58L184.04 3.58L184.04 3.58Q184.37 3.58 184.82 3.59L184.82 3.59L184.82 3.59Q185.28 3.60 185.53 3.60L185.53 3.60L185.53 3.60Q186.21 3.60 186.21 3.81L186.21 3.81L186.21 3.81Q186.21 3.86 186.13 3.91L186.13 3.91L186.13 3.91Q186.05 3.95 185.89 4.02L185.89 4.02L185.89 4.02Q185.74 4.09 185.61 4.19L185.61 4.19L185.61 4.19Q185.04 4.63 183.93 6.31L183.93 6.31L183.93 6.31Q182.81 7.99 182.66 8.19L182.66 8.19L182.66 8.19Q182.43 8.47 182.38 8.81L182.38 8.81L182.38 8.81Q182.32 9.14 182.32 9.95L182.32 9.95L182.32 9.95Q182.32 10.14 182.33 10.73L182.33 10.73L182.33 10.73Q182.34 11.33 182.34 11.58L182.34 11.58L182.34 11.91L182.34 11.91Q182.34 12.38 182.50 12.64L182.50 12.64L182.50 12.64Q182.66 12.91 182.80 12.96L182.80 12.96L182.80 12.96Q182.94 13.01 183.08 13.01L183.08 13.01L183.08 13.01Q183.11 13.01 183.22 13.01L183.22 13.01L183.22 13.01Q183.33 13.02 183.36 13.02L183.36 13.02L183.36 13.02Q183.46 13.02 183.51 13.08L183.51 13.08L183.51 13.08Q183.57 13.15 183.57 13.22L183.57 13.22L183.57 13.22Q183.57 13.36 183.50 13.40L183.50 13.40L183.50 13.40Q183.43 13.44 183.23 13.44L183.23 13.44L183.23 13.44Q183.16 13.44 182.62 13.43L182.62 13.43L182.62 13.43Q182.08 13.43 181.83 13.43L181.83 13.43L181.83 13.43Q181.34 13.43 180.94 13.45L180.94 13.45L180.94 13.45Q180.53 13.48 180.29 13.48L180.29 13.48L180.29 13.48Q179.90 13.48 179.90 13.33L179.90 13.33L179.90 13.33Q179.90 13.20 179.98 13.15L179.98 13.15L179.98 13.15Q180.05 13.10 180.24 13.09L180.24 13.09L180.24 13.09Q180.42 13.08 180.50 13.05L180.50 13.05L180.50 13.05Q181.09 12.87 181.09 12.19L181.09 12.19L181.09 12.19Q181.09 12.11 181.10 11.92L181.10 11.92L181.10 11.92Q181.10 11.73 181.11 11.12L181.11 11.12L181.11 11.12Q181.12 10.50 181.12 9.35L181.12 9.35L181.12 9.35Q181.12 9.13 181.08 8.97L181.08 8.97L181.08 8.97Q181.05 8.81 181.00 8.65L181.00 8.65L181.00 8.65Q180.95 8.50 180.76 8.20L180.76 8.20L180.76 8.20Q180.57 7.91 180.39 7.64L180.39 7.64L180.39 7.64Q180.21 7.36 179.77 6.72L179.77 6.72L179.77 6.72Q179.33 6.08 178.92 5.46L178.92 5.46L178.92 5.46Q178.49 4.80 178.14 4.46L178.14 4.46L178.14 4.46Q177.79 4.12 177.60 4.05L177.60 4.05L177.60 4.05Q177.41 3.99 177.16 3.99L177.16 3.99L177.16 3.99Q176.81 3.99 176.81 3.81ZM204.30 10.82L204.30 10.82L204.30 10.82Q204.30 10.53 204.50 10.53L204.50 10.53L204.50 10.53Q204.68 10.53 204.72 10.67L204.72 10.67L204.72 10.67Q204.86 11.00 204.98 11.25L204.98 11.25L204.98 11.25Q205.10 11.49 205.37 11.85L205.37 11.85L205.37 11.85Q205.63 12.21 205.94 12.44L205.94 12.44L205.94 12.44Q206.25 12.67 206.73 12.84L206.73 12.84L206.73 12.84Q207.21 13.01 207.79 13.01L207.79 13.01L207.79 13.01Q208.84 13.01 209.47 12.45L209.47 12.45L209.47 12.45Q210.11 11.90 210.11 11.00L210.11 11.00L210.11 11.00Q210.11 10.35 209.68 9.90L209.68 9.90L209.68 9.90Q209.24 9.46 208.68 9.27L208.68 9.27L208.68 9.27Q208.12 9.09 207.26 8.77L207.26 8.77L207.26 8.77Q206.40 8.46 205.86 8.13L205.86 8.13L205.86 8.13Q204.58 7.38 204.58 6.08L204.58 6.08L204.58 6.08Q204.58 4.83 205.48 4.08L205.48 4.08L205.48 4.08Q206.39 3.33 207.83 3.33L207.83 3.33L207.83 3.33Q208.36 3.33 209.10 3.56L209.10 3.56L209.10 3.56Q209.83 3.79 209.85 3.79L209.85 3.79L209.85 3.79Q209.89 3.79 210 3.74L210 3.74L210 3.74Q210.11 3.68 210.17 3.68L210.17 3.68L210.17 3.68Q210.35 3.68 210.38 3.79L210.38 3.79L210.38 3.79Q210.67 5.49 210.67 5.70L210.67 5.70L210.67 5.70Q210.67 6.09 210.48 6.09L210.48 6.09L210.48 6.09Q210.35 6.09 210.28 5.89L210.28 5.89L210.28 5.89Q210.11 5.49 209.95 5.24L209.95 5.24L209.95 5.24Q209.79 4.98 209.72 4.91L209.72 4.91L209.72 4.91Q209.65 4.84 209.36 4.58L209.36 4.58L209.36 4.58Q208.60 3.91 207.52 3.91L207.52 3.91L207.52 3.91Q206.65 3.91 206.07 4.33L206.07 4.33L206.07 4.33Q205.48 4.75 205.48 5.46L205.48 5.46L205.48 5.46Q205.48 6.09 205.82 6.50L205.82 6.50L205.82 6.50Q206.16 6.90 206.74 7.13L206.74 7.13L206.74 7.13Q207.31 7.35 207.94 7.55L207.94 7.55L207.94 7.55Q208.57 7.74 209.28 8.09L209.28 8.09L209.28 8.09Q209.99 8.44 210.45 8.93L210.45 8.93L210.45 8.93Q211.01 9.53 211.01 10.43L211.01 10.43L211.01 10.43Q211.01 11.90 210.07 12.76L210.07 12.76L210.07 12.76Q209.13 13.62 207.75 13.62L207.75 13.62L207.75 13.62Q206.78 13.62 206.19 13.52L206.19 13.52L206.19 13.52Q205.60 13.41 204.99 13.09L204.99 13.09L204.99 13.09Q204.81 12.98 204.55 12.00L204.55 12.00L204.55 12.00Q204.30 11.02 204.30 10.82ZM219.44 8.69L219.44 8.69L219.44 8.69Q219.44 6.34 220.85 4.84L220.85 4.84L220.85 4.84Q222.26 3.33 224.85 3.33L224.85 3.33L224.85 3.33Q226.06 3.33 227.02 3.68L227.02 3.68L227.02 3.68Q227.99 4.03 228.55 4.54L228.55 4.54L228.55 4.54Q229.11 5.05 229.49 5.71L229.49 5.71L229.49 5.71Q229.87 6.37 230.01 6.92L230.01 6.92L230.01 6.92Q230.15 7.48 230.15 7.95L230.15 7.95L230.15 7.95Q230.15 9.86 229.40 11.16L229.40 11.16L229.40 11.16Q228.66 12.47 227.45 13.07L227.45 13.07L227.45 13.07Q226.24 13.66 224.66 13.66L224.66 13.66L224.66 13.66Q222.99 13.66 221.78 12.94L221.78 12.94L221.78 12.94Q220.57 12.21 220.00 11.10L220.00 11.10L220.00 11.10Q219.44 10.00 219.44 8.69ZM220.67 7.98L220.67 7.98L220.67 7.98Q220.67 8.54 220.82 9.19L220.82 9.19L220.82 9.19Q220.98 9.84 221.33 10.54L221.33 10.54L221.33 10.54Q221.68 11.23 222.17 11.78L222.17 11.78L222.17 11.78Q222.67 12.33 223.43 12.69L223.43 12.69L223.43 12.69Q224.20 13.05 225.11 13.05L225.11 13.05L225.11 13.05Q225.58 13.05 226.11 12.90L226.11 12.90L226.11 12.90Q226.63 12.75 227.15 12.45L227.15 12.45L227.15 12.45Q227.67 12.14 228.07 11.70L228.07 11.70L228.07 11.70Q228.48 11.26 228.74 10.62L228.74 10.62L228.74 10.62Q229.00 9.98 229.00 9.24L229.00 9.24L229.00 9.24Q229.00 6.71 227.67 5.30L227.67 5.30L227.67 5.30Q226.34 3.89 224.38 3.89L224.38 3.89L224.38 3.89Q222.84 3.89 221.75 4.93L221.75 4.93L221.75 4.93Q220.67 5.96 220.67 7.98ZM238.04 3.68L238.04 3.68L238.04 3.68Q238.04 3.64 238.06 3.60L238.06 3.60L238.06 3.60Q238.08 3.56 238.18 3.50L238.18 3.50L238.18 3.50Q238.27 3.44 238.41 3.44L238.41 3.44L238.78 3.44L238.78 3.44Q239.12 3.44 239.87 3.49L239.87 3.49L239.87 3.49Q240.62 3.53 241.82 3.53L241.82 3.53L241.82 3.53Q242.82 3.53 243.59 3.49L243.59 3.49L243.59 3.49Q244.36 3.46 245 3.46L245 3.46L245 3.46Q245.24 3.46 245.24 3.79L245.24 3.79L245.24 3.79Q245.24 3.92 245.21 4.11L245.21 4.11L245.21 4.11Q245.18 4.30 245.13 4.61L245.13 4.61L245.13 4.61Q245.07 4.93 245.04 5.22L245.04 5.22L245.04 5.22Q245.01 5.50 244.83 5.50L244.83 5.50L244.83 5.50Q244.64 5.50 244.64 5.22L244.64 5.22L244.64 5.22Q244.64 4.30 243.99 4.26L243.99 4.26L243.99 4.26Q241.88 4.09 241.47 4.09L241.47 4.09L241.47 4.09Q240.84 4.09 240.69 4.24L240.69 4.24L240.69 4.24Q240.55 4.40 240.53 4.87L240.53 4.87L240.53 4.87Q240.53 4.94 240.53 4.98L240.53 4.98L240.53 4.98Q240.49 5.74 240.49 7.32L240.49 7.32L240.49 7.32Q240.49 8.01 240.74 8.02L240.74 8.02L240.74 8.02Q240.81 8.02 240.93 8.03L240.93 8.03L240.93 8.03Q241.05 8.04 241.09 8.04L241.09 8.04L241.09 8.04Q241.19 8.04 241.39 8.03L241.39 8.03L241.39 8.03Q241.58 8.02 241.70 8.02L241.70 8.02L242.13 8.02L242.13 8.02Q242.97 8.02 243.24 7.97L243.24 7.97L243.24 7.97Q243.52 7.92 243.74 7.77L243.74 7.77L243.74 7.77Q243.87 7.69 243.94 7.57L243.94 7.57L243.94 7.57Q244.01 7.46 244.03 7.31L244.03 7.31L244.03 7.31Q244.06 7.15 244.10 7.08L244.10 7.08L244.10 7.08Q244.15 7.01 244.27 7.01L244.27 7.01L244.27 7.01Q244.40 7.01 244.43 7.06L244.43 7.06L244.43 7.06Q244.45 7.10 244.45 7.24L244.45 7.24L244.45 7.24Q244.45 7.34 244.39 7.73L244.39 7.73L244.39 7.73Q244.33 8.12 244.33 8.40L244.33 8.40L244.33 8.40Q244.33 8.67 244.38 9.05L244.38 9.05L244.38 9.05Q244.43 9.44 244.43 9.55L244.43 9.55L244.43 9.55Q244.43 9.77 244.38 9.83L244.38 9.83L244.38 9.83Q244.33 9.90 244.23 9.90L244.23 9.90L244.23 9.90Q243.99 9.90 243.94 9.55L243.94 9.55L243.94 9.55Q243.94 9.52 243.92 9.42L243.92 9.42L243.92 9.42Q243.91 9.32 243.90 9.28L243.90 9.28L243.90 9.28Q243.89 9.24 243.87 9.16L243.87 9.16L243.87 9.16Q243.84 9.09 243.81 9.04L243.81 9.04L243.81 9.04Q243.78 9.00 243.74 8.95L243.74 8.95L243.74 8.95Q243.70 8.90 243.63 8.88L243.63 8.88L243.63 8.88Q243.43 8.79 242.93 8.74L242.93 8.74L242.93 8.74Q242.42 8.68 242.27 8.68L242.27 8.68L241.05 8.68L241.05 8.68Q240.48 8.68 240.48 8.95L240.48 8.95L240.48 8.95Q240.48 9.35 240.46 9.96L240.46 9.96L240.46 9.96Q240.45 10.57 240.45 10.96L240.45 10.96L240.45 10.96Q240.45 11.06 240.44 11.25L240.44 11.25L240.44 11.25Q240.44 11.44 240.44 11.52L240.44 11.52L240.44 11.52Q240.44 11.80 240.49 12.08L240.49 12.08L240.49 12.08Q240.55 12.36 240.82 12.67L240.82 12.67L240.82 12.67Q241.09 12.98 241.56 12.98L241.56 12.98L241.56 12.98Q241.98 12.98 241.98 13.23L241.98 13.23L241.98 13.23Q241.98 13.27 241.95 13.33L241.95 13.33L241.95 13.33Q241.92 13.38 241.81 13.44L241.81 13.44L241.81 13.44Q241.71 13.50 241.54 13.50L241.54 13.50L241.54 13.50Q241.32 13.50 240.84 13.44L240.84 13.44L240.84 13.44Q240.35 13.38 240.18 13.38L240.18 13.38L240.18 13.38Q239.79 13.38 239.31 13.43L239.31 13.43L239.31 13.43Q238.83 13.47 238.49 13.47L238.49 13.47L238.49 13.47Q238.21 13.47 238.21 13.31L238.21 13.31L238.21 13.31Q238.21 13.13 238.27 13.09L238.27 13.09L238.27 13.09Q238.34 13.05 238.81 12.88L238.81 12.88L238.81 12.88Q239.18 12.75 239.26 12.13L239.26 12.13L239.26 12.13Q239.34 11.51 239.36 9.60L239.36 9.60L239.36 9.60Q239.36 8.86 239.36 8.44L239.36 8.44L239.36 8.44Q239.36 8.06 239.38 7.26L239.38 7.26L239.38 7.26Q239.40 6.45 239.40 6.01L239.40 6.01L239.40 5.19L239.40 5.19Q239.40 4.27 238.74 3.96L238.74 3.96L238.74 3.96Q238.64 3.92 238.50 3.90L238.50 3.90L238.50 3.90Q238.36 3.88 238.27 3.88L238.27 3.88L238.27 3.88Q238.18 3.88 238.11 3.83L238.11 3.83L238.11 3.83Q238.04 3.78 238.04 3.68ZM252.80 5.32L252.80 5.32L252.80 5.32Q252.80 4.76 252.94 3.88L252.94 3.88L252.94 3.88Q252.94 3.85 252.94 3.78L252.94 3.78L252.94 3.78Q252.95 3.71 252.96 3.69L252.96 3.69L252.96 3.69Q252.97 3.67 252.97 3.62L252.97 3.62L252.97 3.62Q252.98 3.57 252.99 3.55L252.99 3.55L252.99 3.55Q253.01 3.53 253.03 3.49L253.03 3.49L253.03 3.49Q253.05 3.46 253.08 3.44L253.08 3.44L253.08 3.44Q253.11 3.43 253.15 3.42L253.15 3.42L253.15 3.42Q253.19 3.40 253.25 3.39L253.25 3.39L253.25 3.39Q253.30 3.39 253.37 3.39L253.37 3.39L253.37 3.39Q253.60 3.39 254.56 3.44L254.56 3.44L254.56 3.44Q255.51 3.50 257.32 3.50L257.32 3.50L257.32 3.50Q260.40 3.50 261.63 3.43L261.63 3.43L261.63 3.43Q261.65 3.43 261.68 3.42L261.68 3.42L261.68 3.42Q261.72 3.42 261.73 3.42L261.73 3.42L261.73 3.42Q261.88 3.42 261.94 3.50L261.94 3.50L261.94 3.50Q262.00 3.58 262.00 3.65L262.00 3.65L262.00 3.65Q262.00 3.75 262.04 4.24L262.04 4.24L262.04 4.24Q262.08 4.73 262.08 4.79L262.08 4.79L262.08 4.79Q262.08 5.14 262.04 5.23L262.04 5.23L262.04 5.23Q262.00 5.32 261.86 5.32L261.86 5.32L261.86 5.32Q261.74 5.32 261.70 5.15L261.70 5.15L261.70 5.15Q261.59 4.75 261.51 4.60L261.51 4.60L261.51 4.60Q261.42 4.45 261.14 4.34L261.14 4.34L261.14 4.34Q260.86 4.23 260.29 4.23L260.29 4.23L258.47 4.23L258.47 4.23Q258.13 4.23 258.06 4.36L258.06 4.36L258.06 4.36Q257.98 4.49 257.98 5.12L257.98 5.12L257.98 5.81L257.98 5.81Q257.98 7.69 257.96 9.11L257.96 9.11L257.96 9.11Q257.94 10.54 257.94 10.93L257.94 10.93L257.94 10.93Q257.94 11.13 257.93 11.43L257.93 11.43L257.93 11.43Q257.92 11.73 257.92 11.84L257.92 11.84L257.92 11.84Q257.92 12.45 258.12 12.64L258.12 12.64L258.12 12.64Q258.30 12.81 258.52 12.90L258.52 12.90L258.52 12.90Q258.75 12.99 258.91 13.01L258.91 13.01L258.91 13.01Q259.07 13.02 259.18 13.08L259.18 13.08L259.18 13.08Q259.29 13.13 259.29 13.26L259.29 13.26L259.29 13.26Q259.29 13.41 259.22 13.45L259.22 13.45L259.22 13.45Q259.15 13.50 258.96 13.50L258.96 13.50L258.96 13.50Q258.79 13.50 258.22 13.44L258.22 13.44L258.22 13.44Q257.64 13.38 257.40 13.38L257.40 13.38L257.40 13.38Q257.24 13.38 256.73 13.43L256.73 13.43L256.73 13.43Q256.21 13.48 255.98 13.48L255.98 13.48L255.98 13.48Q255.46 13.48 255.46 13.26L255.46 13.26L255.46 13.26Q255.46 13.12 255.54 13.07L255.54 13.07L255.54 13.07Q255.63 13.02 255.87 12.98L255.87 12.98L255.87 12.98Q256.12 12.95 256.19 12.94L256.19 12.94L256.19 12.94Q256.66 12.82 256.72 12.38L256.72 12.38L256.72 12.38Q256.86 11.14 256.86 7.08L256.86 7.08L256.84 4.58L256.84 4.58Q256.84 4.31 256.69 4.25L256.69 4.25L256.69 4.25Q256.54 4.19 255.78 4.19L255.78 4.19L255.78 4.19Q254.80 4.19 254.30 4.24L254.30 4.24L254.30 4.24Q253.81 4.30 253.72 4.35L253.72 4.35L253.72 4.35Q253.64 4.40 253.53 4.54L253.53 4.54L253.53 4.54Q253.40 4.70 253.32 4.91L253.32 4.91L253.32 4.91Q253.25 5.11 253.22 5.24L253.22 5.24L253.22 5.24Q253.20 5.38 253.14 5.47L253.14 5.47L253.14 5.47Q253.08 5.56 252.95 5.56L252.95 5.56L252.95 5.56Q252.80 5.56 252.80 5.32ZM269.64 3.71L269.64 3.71L269.64 3.71Q269.64 3.51 270.02 3.51L270.02 3.51L270.02 3.51Q270.10 3.51 270.56 3.54L270.56 3.54L270.56 3.54Q271.01 3.56 271.56 3.56L271.56 3.56L271.56 3.56Q271.95 3.56 272.34 3.54L272.34 3.54L272.34 3.54Q272.73 3.51 272.76 3.51L272.76 3.51L272.76 3.51Q272.89 3.51 272.92 3.55L272.92 3.55L272.92 3.55Q272.96 3.58 272.96 3.68L272.96 3.68L272.96 3.68Q272.96 3.77 272.66 3.92L272.66 3.92L272.66 3.92Q272.36 4.07 272.36 4.34L272.36 4.34L272.36 4.34Q272.36 4.47 272.41 4.65L272.41 4.65L272.41 4.65Q272.47 4.83 272.64 5.22L272.64 5.22L272.64 5.22Q272.80 5.61 272.99 6.03L272.99 6.03L272.99 6.03Q273.18 6.45 273.57 7.33L273.57 7.33L273.57 7.33Q273.97 8.20 274.34 9.07L274.34 9.07L274.34 9.07Q274.44 9.30 274.63 9.74L274.63 9.74L274.63 9.74Q274.82 10.18 274.94 10.46L274.94 10.46L274.94 10.46Q275.06 10.74 275.20 11.05L275.20 11.05L275.20 11.05Q275.34 11.37 275.43 11.52L275.43 11.52L275.43 11.52Q275.52 11.68 275.56 11.68L275.56 11.68L275.56 11.68Q275.62 11.68 276.01 10.81L276.01 10.81L276.01 10.81Q276.40 9.94 276.71 9.17L276.71 9.17L276.71 9.17Q276.77 9.04 276.84 8.89L276.84 8.89L276.84 8.89Q276.92 8.74 276.96 8.63L276.96 8.63L276.96 8.63Q276.99 8.53 276.99 8.41L276.99 8.41L276.99 8.41Q276.99 8.25 276.15 6.36L276.15 6.36L276.15 6.36Q275.31 4.48 275.07 4.21L275.07 4.21L275.07 4.21Q275.02 4.14 274.96 4.10L274.96 4.10L274.96 4.10Q274.90 4.06 274.86 4.02L274.86 4.02L274.86 4.02Q274.81 3.99 274.77 3.97L274.77 3.97L274.77 3.97Q274.74 3.95 274.68 3.94L274.68 3.94L274.68 3.94Q274.62 3.93 274.60 3.93L274.60 3.93L274.60 3.93Q274.58 3.93 274.52 3.93L274.52 3.93L274.52 3.93Q274.46 3.92 274.44 3.92L274.44 3.92L274.44 3.92Q274.05 3.88 273.97 3.84L273.97 3.84L273.97 3.84Q273.88 3.81 273.88 3.70L273.88 3.70L273.88 3.70Q273.88 3.50 274.29 3.50L274.29 3.50L274.29 3.50Q274.37 3.50 274.83 3.53L274.83 3.53L274.83 3.53Q275.30 3.56 275.83 3.56L275.83 3.56L275.83 3.56Q275.86 3.56 276.21 3.53L276.21 3.53L276.21 3.53Q276.56 3.50 276.75 3.50L276.75 3.50L276.75 3.50Q277.17 3.50 277.17 3.61L277.17 3.61L277.17 3.61Q277.17 3.70 277.02 3.78L277.02 3.78L277.02 3.78Q276.86 3.86 276.72 4.00L276.72 4.00L276.72 4.00Q276.57 4.13 276.57 4.33L276.57 4.33L276.57 4.33Q276.57 4.59 277.00 5.57L277.00 5.57L277.00 5.57Q277.03 5.63 277.19 6.03L277.19 6.03L277.19 6.03Q277.35 6.44 277.48 6.71L277.48 6.71L277.48 6.71Q277.61 6.99 277.66 6.99L277.66 6.99L277.66 6.99Q277.77 6.99 278.22 5.76L278.22 5.76L278.22 5.76Q278.67 4.54 278.67 4.31L278.67 4.31L278.67 4.31Q278.67 4.06 278.46 3.96L278.46 3.96L278.46 3.96Q278.25 3.85 278.04 3.80L278.04 3.80L278.04 3.80Q277.83 3.75 277.83 3.64L277.83 3.64L277.83 3.64Q277.83 3.49 278.14 3.49L278.14 3.49L278.14 3.49Q278.22 3.49 278.56 3.50L278.56 3.50L278.56 3.50Q278.89 3.51 279.03 3.51L279.03 3.51L279.27 3.51L279.27 3.51Q279.47 3.51 280.01 3.47L280.01 3.47L280.14 3.47L280.14 3.47Q280.32 3.47 280.32 3.61L280.32 3.61L280.32 3.61Q280.32 3.75 280.06 3.84L280.06 3.84L280.06 3.84Q279.79 3.92 279.69 4.02L279.69 4.02L279.69 4.02Q279.47 4.24 279.30 4.66L279.30 4.66L279.30 4.66Q279.01 5.38 278.60 6.33L278.60 6.33L278.60 6.33Q278.18 7.31 278.11 7.50L278.11 7.50L278.11 7.50Q278.04 7.70 278.04 7.85L278.04 7.85L278.04 7.85Q278.04 7.97 278.89 9.87L278.89 9.87L278.89 9.87Q279.75 11.77 279.90 11.77L279.90 11.77L279.90 11.77Q280.07 11.77 281.53 8.24L281.53 8.24L281.53 8.24Q283.00 4.70 283.00 4.35L283.00 4.35L283.00 4.35Q283.00 4.13 282.84 4.01L282.84 4.01L282.84 4.01Q282.67 3.89 282.48 3.87L282.48 3.87L282.48 3.87Q282.28 3.85 282.12 3.80L282.12 3.80L282.12 3.80Q281.96 3.75 281.96 3.64L281.96 3.64L281.96 3.64Q281.96 3.54 282.00 3.52L282.00 3.52L282.00 3.52Q282.04 3.50 282.23 3.50L282.23 3.50L282.23 3.50Q282.27 3.50 282.55 3.51L282.55 3.51L282.55 3.51Q282.83 3.51 283.11 3.51L283.11 3.51L283.11 3.51Q283.36 3.51 283.68 3.50L283.68 3.50L283.68 3.50Q283.99 3.49 284.35 3.49L284.35 3.49L284.35 3.49Q284.63 3.49 284.63 3.68L284.63 3.68L284.63 3.68Q284.63 3.78 284.56 3.84L284.56 3.84L284.56 3.84Q284.48 3.89 284.33 3.98L284.33 3.98L284.33 3.98Q284.17 4.06 284.06 4.17L284.06 4.17L284.06 4.17Q283.99 4.24 283.94 4.31L283.94 4.31L283.94 4.31Q283.89 4.38 283.84 4.49L283.84 4.49L283.84 4.49Q283.78 4.59 283.75 4.66L283.75 4.66L283.75 4.66Q283.71 4.73 283.63 4.91L283.63 4.91L283.63 4.91Q283.56 5.08 283.51 5.18L283.51 5.18L283.51 5.18Q282.44 7.59 281.11 10.58L281.11 10.58L281.11 10.58Q280.04 13.01 279.85 13.41L279.85 13.41L279.85 13.41Q279.65 13.82 279.54 13.82L279.54 13.82L279.54 13.82Q279.47 13.82 279.37 13.64L279.37 13.64L279.37 13.64Q279.27 13.47 279.10 13.05L279.10 13.05L279.10 13.05Q278.92 12.64 278.89 12.57L278.89 12.57L278.89 12.57Q278.75 12.26 278.52 11.72L278.52 11.72L278.52 11.72Q278.29 11.17 278.13 10.79L278.13 10.79L278.13 10.79Q277.97 10.42 277.80 10.02L277.80 10.02L277.80 10.02Q277.63 9.63 277.52 9.43L277.52 9.43L277.52 9.43Q277.41 9.23 277.37 9.23L277.37 9.23L277.37 9.23Q277.23 9.23 276.42 11.16L276.42 11.16L276.42 11.16Q275.62 13.09 275.56 13.31L275.56 13.31L275.56 13.31Q275.55 13.37 275.53 13.43L275.53 13.43L275.53 13.43Q275.51 13.48 275.49 13.52L275.49 13.52L275.49 13.52Q275.48 13.57 275.46 13.61L275.46 13.61L275.46 13.61Q275.45 13.65 275.44 13.68L275.44 13.68L275.44 13.68Q275.42 13.71 275.42 13.73L275.42 13.73L275.42 13.73Q275.41 13.76 275.39 13.78L275.39 13.78L275.39 13.78Q275.38 13.80 275.37 13.82L275.37 13.82L275.37 13.82Q275.35 13.83 275.34 13.84L275.34 13.84L275.34 13.84Q275.32 13.85 275.31 13.85L275.31 13.85L275.31 13.85Q275.30 13.86 275.27 13.86L275.27 13.86L275.27 13.86Q275.14 13.86 274.96 13.46L274.96 13.46L274.96 13.46Q274.78 13.06 274.30 11.89L274.30 11.89L274.30 11.89Q273.83 10.72 273.34 9.65L273.34 9.65L273.34 9.65Q272.52 7.87 271.61 5.63L271.61 5.63L271.61 5.63Q271.35 4.96 271.04 4.57L271.04 4.57L271.04 4.57Q270.73 4.19 270.49 4.09L270.49 4.09L270.49 4.09Q270.26 3.99 270.06 3.98L270.06 3.98L270.06 3.98Q269.86 3.96 269.75 3.92L269.75 3.92L269.75 3.92Q269.64 3.88 269.64 3.71ZM290.21 13.33L290.21 13.33L290.21 13.33Q290.21 13.13 290.42 13.06L290.42 13.06L290.42 13.06Q290.86 12.89 291.20 12.31L291.20 12.31L291.20 12.31Q291.54 11.73 292.87 8.83L292.87 8.83L292.87 8.83Q294.24 5.87 295.29 3.63L295.29 3.63L295.29 3.63Q295.39 3.42 295.46 3.36L295.46 3.36L295.46 3.36Q295.54 3.30 295.71 3.30L295.71 3.30L295.71 3.30Q295.83 3.30 295.88 3.36L295.88 3.36L295.88 3.36Q295.92 3.42 296.06 3.82L296.06 3.82L296.06 3.82Q296.14 4.06 296.21 4.23L296.21 4.23L296.21 4.23Q296.27 4.40 296.41 4.77L296.41 4.77L296.41 4.77Q296.55 5.15 296.72 5.56L296.72 5.56L296.72 5.56Q297.16 6.66 298.26 9.22L298.26 9.22L298.26 9.22Q299.36 11.77 299.46 11.98L299.46 11.98L299.46 11.98Q299.70 12.46 299.99 12.71L299.99 12.71L299.99 12.71Q300.29 12.95 300.50 12.97L300.50 12.97L300.50 12.97Q300.72 12.99 300.87 13.04L300.87 13.04L300.87 13.04Q301.01 13.09 301.01 13.26L301.01 13.26L301.01 13.26Q301.01 13.47 300.64 13.47L300.64 13.47L300.64 13.47Q300.48 13.47 300.03 13.43L300.03 13.43L300.03 13.43Q299.59 13.38 299.38 13.38L299.38 13.38L299.38 13.38Q299.11 13.38 298.69 13.41L298.69 13.41L298.69 13.41Q298.27 13.44 298.07 13.44L298.07 13.44L298.07 13.44Q297.64 13.44 297.52 13.40L297.52 13.40L297.52 13.40Q297.40 13.37 297.40 13.24L297.40 13.24L297.40 13.24Q297.40 13.15 297.51 13.08L297.51 13.08L297.51 13.08Q297.63 13.02 297.75 13.00L297.75 13.00L297.75 13.00Q297.88 12.98 297.99 12.87L297.99 12.87L297.99 12.87Q298.10 12.77 298.10 12.59L298.10 12.59L298.10 12.59Q298.10 12.28 297.75 11.33L297.75 11.33L297.75 11.33Q297.40 10.37 297.16 9.93L297.16 9.93L297.16 9.93Q297.04 9.69 296.59 9.69L296.59 9.69L296.59 9.69Q296.52 9.69 295.97 9.70L295.97 9.70L295.97 9.70Q295.43 9.72 294.90 9.72L294.90 9.72L294.15 9.72L294.15 9.72Q293.52 9.72 293.36 9.79L293.36 9.79L293.36 9.79Q293.20 9.86 293.08 10.12L293.08 10.12L293.08 10.12Q292.99 10.30 292.80 10.70L292.80 10.70L292.80 10.70Q292.60 11.10 292.53 11.26L292.53 11.26L292.53 11.26Q292.46 11.41 292.36 11.65L292.36 11.65L292.36 11.65Q292.25 11.90 292.22 12.05L292.22 12.05L292.22 12.05Q292.18 12.19 292.18 12.31L292.18 12.31L292.18 12.31Q292.18 12.63 292.34 12.80L292.34 12.80L292.34 12.80Q292.50 12.96 292.70 12.98L292.70 12.98L292.70 12.98Q292.89 13.01 293.06 13.06L293.06 13.06L293.06 13.06Q293.22 13.12 293.22 13.26L293.22 13.26L293.22 13.26Q293.22 13.36 293.17 13.40L293.17 13.40L293.17 13.40Q293.13 13.45 292.98 13.45L292.98 13.45L292.98 13.45Q292.89 13.45 292.50 13.45L292.50 13.45L292.50 13.45Q292.10 13.44 291.82 13.44L291.82 13.44L291.82 13.44Q291.51 13.44 291.12 13.47L291.12 13.47L291.12 13.47Q290.74 13.50 290.61 13.50L290.61 13.50L290.61 13.50Q290.21 13.50 290.21 13.33ZM293.72 8.71L293.72 8.71L293.72 8.71Q293.72 8.89 293.85 8.93L293.85 8.93L293.85 8.93Q293.97 8.97 294.43 8.97L294.43 8.97L294.87 8.97L296.20 8.96L296.20 8.96Q296.74 8.96 296.74 8.74L296.74 8.74L296.74 8.74Q296.74 8.55 296.06 7.01L296.06 7.01L296.06 7.01Q295.37 5.46 295.19 5.46L295.19 5.46L295.19 5.46Q295.06 5.46 294.39 7.01L294.39 7.01L294.39 7.01Q293.72 8.55 293.72 8.71ZM308.57 3.70L308.57 3.70L308.57 3.70Q308.57 3.47 308.98 3.47L308.98 3.47L311.30 3.47L311.30 3.47Q311.63 3.47 312.05 3.45L312.05 3.45L312.05 3.45Q312.47 3.43 312.70 3.43L312.70 3.43L312.70 3.43Q313.96 3.43 314.86 4.07L314.86 4.07L314.86 4.07Q315.76 4.70 315.76 5.78L315.76 5.78L315.76 5.78Q315.76 6.50 315.48 7.03L315.48 7.03L315.48 7.03Q315.21 7.57 314.88 7.81L314.88 7.81L314.88 7.81Q314.55 8.05 314.28 8.22L314.28 8.22L314.28 8.22Q314.01 8.40 314.01 8.46L314.01 8.46L314.01 8.46Q314.01 8.62 315.18 10.27L315.18 10.27L315.18 10.27Q316.36 11.91 316.79 12.38L316.79 12.38L316.79 12.38Q317.32 13.03 318.08 13.03L318.08 13.03L318.08 13.03Q318.28 13.03 318.28 13.20L318.28 13.20L318.28 13.20Q318.28 13.41 318.11 13.48L318.11 13.48L318.11 13.48Q317.94 13.55 317.24 13.55L317.24 13.55L317.24 13.55Q316.58 13.55 316.04 13.23L316.04 13.23L316.04 13.23Q315.34 12.82 313.67 10.09L313.67 10.09L313.67 10.09Q313.57 9.94 313.53 9.87L313.53 9.87L313.53 9.87Q312.86 8.78 312.49 8.78L312.49 8.78L312.20 8.78L311.35 8.78L311.35 8.78Q311.18 8.78 311.14 8.92L311.14 8.92L311.14 8.92Q311.11 9.06 311.11 9.77L311.11 9.77L311.11 9.77Q311.11 10.44 311.11 10.88L311.11 10.88L311.11 10.88Q311.11 11.31 311.12 11.43L311.12 11.43L311.12 11.43Q311.12 11.55 311.12 11.63L311.12 11.63L311.12 11.63Q311.12 11.70 311.12 11.75L311.12 11.75L311.12 11.75Q311.12 12.32 311.39 12.63L311.39 12.63L311.39 12.63Q311.65 12.95 311.98 13.00L311.98 13.00L311.98 13.00Q312.31 13.05 312.58 13.11L312.58 13.11L312.58 13.11Q312.84 13.17 312.84 13.31L312.84 13.31L312.84 13.31Q312.84 13.54 312.59 13.54L312.59 13.54L312.59 13.54Q312.58 13.54 311.63 13.49L311.63 13.49L311.63 13.49Q310.67 13.44 310.59 13.44L310.59 13.44L310.59 13.44Q310.18 13.44 309.62 13.47L309.62 13.47L309.62 13.47Q309.06 13.50 309.05 13.50L309.05 13.50L309.05 13.50Q308.76 13.50 308.76 13.27L308.76 13.27L308.76 13.27Q308.76 13.12 308.94 13.05L308.94 13.05L308.94 13.05Q309.12 12.99 309.34 12.96L309.34 12.96L309.34 12.96Q309.57 12.94 309.75 12.66L309.75 12.66L309.75 12.66Q309.93 12.38 309.93 11.86L309.93 11.86L309.93 11.86Q309.93 11.49 309.94 9.90L309.94 9.90L309.94 9.90Q309.95 8.30 309.95 7.45L309.95 7.45L309.95 7.45Q309.95 6.58 309.94 5.86L309.94 5.86L309.94 5.86Q309.93 5.14 309.93 5.08L309.93 5.08L309.93 5.08Q309.93 4.56 309.72 4.29L309.72 4.29L309.72 4.29Q309.51 4.02 309.25 3.98L309.25 3.98L309.25 3.98Q308.99 3.95 308.78 3.89L308.78 3.89L308.78 3.89Q308.57 3.84 308.57 3.70ZM311.11 5.54L311.11 5.94L311.11 5.94Q311.11 7.38 311.12 7.72L311.12 7.72L311.12 7.72Q311.14 8.06 311.22 8.12L311.22 8.12L311.22 8.12Q311.43 8.25 311.82 8.25L311.82 8.25L311.96 8.25L312.37 8.25L312.37 8.25Q313.56 8.25 314.07 7.70L314.07 7.70L314.07 7.70Q314.58 7.15 314.58 6.30L314.58 6.30L314.58 6.30Q314.58 5.43 313.90 4.72L313.90 4.72L313.90 4.72Q313.22 4.00 311.85 4.00L311.85 4.00L311.85 4.00Q311.33 4.00 311.22 4.28L311.22 4.28L311.22 4.28Q311.11 4.55 311.11 5.54L311.11 5.54ZM325.63 3.65L325.63 3.65L325.63 3.65Q325.63 3.46 326.02 3.46L326.02 3.46L326.02 3.46Q326.07 3.46 326.20 3.47L326.20 3.47L326.20 3.47Q326.33 3.49 326.40 3.49L326.40 3.49L326.40 3.49Q326.44 3.49 327.71 3.52L327.71 3.52L327.71 3.52Q328.99 3.56 329.81 3.56L329.81 3.56L329.81 3.56Q330.11 3.56 331.26 3.53L331.26 3.53L331.26 3.53Q332.42 3.50 332.61 3.50L332.61 3.50L332.61 3.50Q332.88 3.50 332.88 3.82L332.88 3.82L332.88 3.82Q332.88 3.91 332.79 4.38L332.79 4.38L332.79 4.38Q332.71 4.84 332.71 5.25L332.71 5.25L332.71 5.25Q332.71 5.38 332.64 5.47L332.64 5.47L332.64 5.47Q332.57 5.56 332.49 5.56L332.49 5.56L332.49 5.56Q332.28 5.56 332.28 5.26L332.28 5.26L332.28 5.26Q332.28 4.89 332.04 4.58L332.04 4.58L332.04 4.58Q331.80 4.27 331.45 4.26L331.45 4.26L331.45 4.26Q330.19 4.16 329.52 4.16L329.52 4.16L329.15 4.16L329.15 4.16Q328.43 4.16 328.31 4.26L328.31 4.26L328.31 4.26Q328.19 4.37 328.16 5.01L328.16 5.01L328.16 5.01Q328.10 6.02 328.10 7.35L328.10 7.35L328.10 7.35Q328.10 8.05 328.37 8.06L328.37 8.06L328.72 8.06L329.31 8.06L329.74 8.06L329.74 8.06Q330.58 8.06 330.86 8.01L330.86 8.01L330.86 8.01Q331.14 7.95 331.37 7.80L331.37 7.80L331.37 7.80Q331.63 7.62 331.69 7.28L331.69 7.28L331.69 7.28Q331.73 7.04 331.88 7.04L331.88 7.04L331.88 7.04Q332.01 7.04 332.04 7.08L332.04 7.08L332.04 7.08Q332.07 7.13 332.07 7.27L332.07 7.27L332.07 7.27Q332.07 7.36 332.01 7.91L332.01 7.91L332.01 7.91Q331.95 8.46 331.95 8.74L331.95 8.74L331.95 8.74Q331.95 9.00 331.98 9.24L331.98 9.24L331.98 9.24Q332.00 9.48 332.00 9.59L332.00 9.59L332.00 9.59Q332.00 9.94 331.90 9.94L331.90 9.94L331.90 9.94Q331.69 9.94 331.59 9.60L331.59 9.60L331.59 9.60Q331.39 9.02 331.24 8.92L331.24 8.92L331.24 8.92Q330.95 8.72 329.90 8.72L329.90 8.72L329.90 8.72Q329.48 8.72 329.22 8.72L329.22 8.72L329.22 8.72Q328.96 8.72 328.88 8.71L328.88 8.71L328.88 8.71Q328.80 8.71 328.76 8.71L328.76 8.71L328.76 8.71Q328.71 8.71 328.66 8.71L328.66 8.71L328.66 8.71Q328.09 8.71 328.09 8.97L328.09 8.97L328.09 8.97Q328.09 9.38 328.08 9.99L328.08 9.99L328.08 9.99Q328.06 10.60 328.06 10.99L328.06 10.99L328.06 11.55L328.06 11.55Q328.06 12.56 328.40 12.66L328.40 12.66L328.40 12.66Q328.75 12.77 329.00 12.77L329.00 12.77L329.00 12.77Q330.05 12.77 330.84 12.67L330.84 12.67L330.84 12.67Q331.63 12.57 332.03 12.42L332.03 12.42L332.03 12.42Q332.43 12.28 332.70 12.10L332.70 12.10L332.70 12.10Q332.96 11.93 333.04 11.78L333.04 11.78L333.04 11.78Q333.12 11.63 333.19 11.54L333.19 11.54L333.19 11.54Q333.27 11.44 333.35 11.44L333.35 11.44L333.35 11.44Q333.52 11.44 333.52 11.68L333.52 11.68L333.52 11.68Q333.52 12.28 332.92 12.89L332.92 12.89L332.92 12.89Q332.32 13.51 331.87 13.51L331.87 13.51L331.87 13.51Q330.86 13.51 329.60 13.44L329.60 13.44L329.60 13.44Q328.33 13.37 328.02 13.37L328.02 13.37L328.02 13.37Q327.63 13.37 327.04 13.43L327.04 13.43L327.04 13.43Q326.45 13.50 326.12 13.50L326.12 13.50L326.12 13.50Q325.82 13.50 325.82 13.36L325.82 13.36L325.82 13.36Q325.82 13.23 325.82 13.19L325.82 13.19L325.82 13.19Q325.82 13.15 325.86 13.12L325.86 13.12L325.86 13.12Q325.91 13.09 325.96 13.08L325.96 13.08L325.96 13.08Q326.00 13.08 326.14 13.03L326.14 13.03L326.14 13.03Q326.27 12.99 326.42 12.92L326.42 12.92L326.42 12.92Q326.76 12.75 326.87 12.26L326.87 12.26L326.87 12.26Q326.97 11.77 326.97 10.21L326.97 10.21L326.97 8.47L326.97 8.47Q326.97 8.09 326.99 7.29L326.99 7.29L326.99 7.29Q327.01 6.50 327.01 6.05L327.01 6.05L327.01 6.05Q327.01 5.67 326.98 4.77L326.98 4.77L326.98 4.77Q326.97 4.37 326.63 4.14L326.63 4.14L326.63 4.14Q326.30 3.92 325.85 3.91L325.85 3.91L325.85 3.91Q325.63 3.91 325.63 3.65ZM351.40 8.83L351.40 8.83L351.40 8.83Q351.40 7.31 352.01 6.09L352.01 6.09L352.01 6.09Q352.62 4.87 353.88 4.12L353.88 4.12L353.88 4.12Q355.14 3.37 356.87 3.37L356.87 3.37L356.87 3.37Q357.55 3.37 358.13 3.48L358.13 3.48L358.13 3.48Q358.72 3.58 359.10 3.72L359.10 3.72L359.10 3.72Q359.48 3.86 359.76 4.01L359.76 4.01L359.76 4.01Q360.04 4.16 360.19 4.26L360.19 4.26L360.19 4.26Q360.33 4.37 360.36 4.37L360.36 4.37L360.36 4.37Q360.40 4.37 360.55 4.26L360.55 4.26L360.55 4.26Q360.70 4.16 360.75 4.16L360.75 4.16L360.75 4.16Q360.96 4.16 360.96 4.44L360.96 4.44L360.96 4.44Q360.98 4.84 361.03 5.29L361.03 5.29L361.03 5.29Q361.07 5.74 361.12 6.03L361.12 6.03L361.12 6.03Q361.16 6.33 361.16 6.38L361.16 6.38L361.16 6.38Q361.16 6.62 360.99 6.62L360.99 6.62L360.99 6.62Q360.82 6.62 360.75 6.45L360.75 6.45L360.75 6.45Q360.26 5.39 359.11 4.65L359.11 4.65L359.11 4.65Q357.97 3.92 356.75 3.92L356.75 3.92L356.75 3.92Q355.00 3.92 353.86 5.02L353.86 5.02L353.86 5.02Q352.72 6.12 352.72 8.06L352.72 8.06L352.72 8.06Q352.72 9.35 353.19 10.49L353.19 10.49L353.19 10.49Q353.67 11.62 354.64 12.36L354.64 12.36L354.64 12.36Q355.61 13.10 356.87 13.10L356.87 13.10L356.87 13.10Q357.95 13.10 358.83 12.61L358.83 12.61L358.83 12.61Q359.70 12.12 359.80 11.49L359.80 11.49L359.80 11.49Q359.84 11.16 359.84 9.73L359.84 9.73L359.84 9.73Q359.84 9.18 359.60 8.95L359.60 8.95L359.60 8.95Q359.44 8.78 358.99 8.72L358.99 8.72L358.99 8.72Q358.57 8.68 358.50 8.55L358.50 8.55L358.50 8.55Q358.47 8.50 358.47 8.41L358.47 8.41L358.47 8.41Q358.47 8.26 358.72 8.26L358.72 8.26L358.72 8.26Q358.90 8.26 359.51 8.29L359.51 8.29L359.51 8.29Q360.11 8.33 360.28 8.33L360.28 8.33L360.28 8.33Q360.56 8.33 360.88 8.32L360.88 8.32L360.88 8.32Q361.20 8.32 361.40 8.32L361.40 8.32L361.61 8.32L361.61 8.32Q361.83 8.32 361.83 8.44L361.83 8.44L361.83 8.44Q361.83 8.54 361.47 8.69L361.47 8.69L361.47 8.69Q361.12 8.85 361.07 9.09L361.07 9.09L361.07 9.09Q360.98 9.69 360.98 10.65L360.98 10.65L360.98 10.65Q360.98 11.07 360.99 11.40L360.99 11.40L360.99 11.40Q361.00 11.72 361.01 11.85L361.01 11.85L361.01 11.85Q361.02 11.98 361.03 12.08L361.03 12.08L361.03 12.08Q361.05 12.18 361.05 12.22L361.05 12.22L361.05 12.22Q361.05 12.29 360.94 12.33L360.94 12.33L360.94 12.33Q360.84 12.36 360.60 12.42L360.60 12.42L360.60 12.42Q360.36 12.49 360.16 12.60L360.16 12.60L360.07 12.66L360.07 12.66Q359.97 12.73 359.87 12.78L359.87 12.78L359.87 12.78Q359.77 12.84 359.61 12.92L359.61 12.92L359.61 12.92Q359.45 13.01 359.28 13.09L359.28 13.09L359.28 13.09Q359.11 13.17 358.90 13.26L358.90 13.26L358.90 13.26Q358.69 13.36 358.47 13.43L358.47 13.43L358.47 13.43Q358.25 13.50 358.01 13.55L358.01 13.55L358.01 13.55Q357.77 13.61 357.51 13.64L357.51 13.64L357.51 13.64Q357.25 13.68 357.00 13.68L357.00 13.68L357.00 13.68Q355.47 13.68 354.35 13.26L354.35 13.26L354.35 13.26Q353.22 12.85 352.60 12.14L352.60 12.14L352.60 12.14Q351.99 11.44 351.69 10.61L351.69 10.61L351.69 10.61Q351.40 9.79 351.40 8.83ZM369.52 3.68L369.52 3.68L369.52 3.68Q369.52 3.61 369.53 3.58L369.53 3.58L369.53 3.58Q369.54 3.56 369.61 3.53L369.61 3.53L369.61 3.53Q369.68 3.50 369.84 3.50L369.84 3.50L369.84 3.50Q369.99 3.50 370.48 3.53L370.48 3.53L370.48 3.53Q370.97 3.56 371.42 3.56L371.42 3.56L371.42 3.56Q371.70 3.56 371.93 3.54L371.93 3.54L371.93 3.54Q372.16 3.53 372.74 3.53L372.74 3.53L372.74 3.53Q373.03 3.53 373.03 3.72L373.03 3.72L373.03 3.72Q373.03 3.85 372.93 3.88L372.93 3.88L372.93 3.88Q372.83 3.91 372.69 3.92L372.69 3.92L372.69 3.92Q372.54 3.93 372.39 4.02L372.39 4.02L372.39 4.02Q372.25 4.10 372.15 4.43L372.15 4.43L372.15 4.43Q372.05 4.76 372.05 5.32L372.05 5.32L372.05 5.71L372.05 5.71Q372.05 6.37 372.04 7.37L372.04 7.37L372.04 7.37Q372.04 8.37 372.04 8.74L372.04 8.74L372.04 8.74Q372.04 9.17 372.04 9.39L372.04 9.39L372.04 9.39Q372.05 9.62 372.08 10.04L372.08 10.04L372.08 10.04Q372.11 10.47 372.16 10.72L372.16 10.72L372.16 10.72Q372.20 10.96 372.32 11.32L372.32 11.32L372.32 11.32Q372.43 11.68 372.59 11.89L372.59 11.89L372.59 11.89Q372.75 12.10 373.00 12.35L373.00 12.35L373.00 12.35Q373.24 12.60 373.56 12.73L373.56 12.73L373.56 12.73Q373.88 12.87 374.32 12.96L374.32 12.96L374.32 12.96Q374.75 13.05 375.28 13.05L375.28 13.05L375.28 13.05Q375.73 13.05 375.98 13.03L375.98 13.03L375.98 13.03Q376.24 13.02 376.68 12.94L376.68 12.94L376.68 12.94Q377.12 12.87 377.38 12.72L377.38 12.72L377.38 12.72Q377.64 12.57 377.97 12.27L377.97 12.27L377.97 12.27Q378.29 11.97 378.48 11.54L378.48 11.54L378.48 11.54Q378.66 11.10 378.78 10.43L378.78 10.43L378.78 10.43Q378.91 9.76 378.91 8.90L378.91 8.90L378.91 8.90Q378.91 7.49 378.90 6.75L378.90 6.75L378.90 6.75Q378.90 6.01 378.90 5.94L378.90 5.94L378.90 5.94Q378.90 5.45 378.88 5.17L378.88 5.17L378.88 5.17Q378.85 4.89 378.74 4.55L378.74 4.55L378.74 4.55Q378.62 4.21 378.39 4.06L378.39 4.06L378.39 4.06Q378.25 3.96 378.03 3.93L378.03 3.93L378.03 3.93Q377.80 3.89 377.66 3.87L377.66 3.87L377.66 3.87Q377.52 3.85 377.52 3.75L377.52 3.75L377.52 3.75Q377.52 3.53 377.80 3.53L377.80 3.53L377.80 3.53Q377.89 3.53 378.35 3.54L378.35 3.54L378.35 3.54Q378.81 3.56 378.88 3.56L378.88 3.56L378.88 3.56Q379.22 3.56 379.60 3.54L379.60 3.54L379.60 3.54Q379.97 3.51 380.07 3.51L380.07 3.51L380.07 3.51Q380.37 3.51 380.37 3.70L380.37 3.70L380.37 3.70Q380.37 3.81 380.07 3.98L380.07 3.98L380.07 3.98Q379.76 4.16 379.69 4.30L379.69 4.30L379.69 4.30Q379.54 4.59 379.54 5.22L379.54 5.22L379.54 5.22Q379.54 5.32 379.55 5.62L379.55 5.62L379.55 5.62Q379.55 5.92 379.55 6.16L379.55 6.16L379.55 6.16Q379.55 8.85 379.33 10.28L379.33 10.28L379.33 10.28Q379.11 11.70 378.65 12.36L378.65 12.36L378.65 12.36Q378.20 13.01 377.29 13.40L377.29 13.40L377.29 13.40Q376.54 13.71 375.28 13.71L375.28 13.71L375.28 13.71Q372.95 13.71 371.97 12.81L371.97 12.81L371.97 12.81Q371.20 12.10 371.01 11.09L371.01 11.09L371.01 11.09Q370.83 10.09 370.83 7.64L370.83 7.64L370.83 7.41L370.83 7.41Q370.83 6.86 370.85 6.20L370.85 6.20L370.85 6.20Q370.86 5.54 370.86 5.39L370.86 5.39L370.86 5.39Q370.86 4.62 370.68 4.33L370.68 4.33L370.68 4.33Q370.50 4.05 369.82 3.95L369.82 3.95L369.82 3.95Q369.52 3.91 369.52 3.68ZM387.10 13.33L387.10 13.33L387.10 13.33Q387.10 13.13 387.31 13.06L387.31 13.06L387.31 13.06Q387.76 12.89 388.09 12.31L388.09 12.31L388.09 12.31Q388.43 11.73 389.76 8.83L389.76 8.83L389.76 8.83Q391.13 5.87 392.18 3.63L392.18 3.63L392.18 3.63Q392.28 3.42 392.36 3.36L392.36 3.36L392.36 3.36Q392.43 3.30 392.60 3.30L392.60 3.30L392.60 3.30Q392.73 3.30 392.77 3.36L392.77 3.36L392.77 3.36Q392.81 3.42 392.95 3.82L392.95 3.82L392.95 3.82Q393.04 4.06 393.10 4.23L393.10 4.23L393.10 4.23Q393.16 4.40 393.30 4.77L393.30 4.77L393.30 4.77Q393.44 5.15 393.61 5.56L393.61 5.56L393.61 5.56Q394.06 6.66 395.16 9.22L395.16 9.22L395.16 9.22Q396.26 11.77 396.35 11.98L396.35 11.98L396.35 11.98Q396.59 12.46 396.89 12.71L396.89 12.71L396.89 12.71Q397.18 12.95 397.40 12.97L397.40 12.97L397.40 12.97Q397.61 12.99 397.76 13.04L397.76 13.04L397.76 13.04Q397.91 13.09 397.91 13.26L397.91 13.26L397.91 13.26Q397.91 13.47 397.53 13.47L397.53 13.47L397.53 13.47Q397.38 13.47 396.93 13.43L396.93 13.43L396.93 13.43Q396.48 13.38 396.27 13.38L396.27 13.38L396.27 13.38Q396.00 13.38 395.58 13.41L395.58 13.41L395.58 13.41Q395.16 13.44 394.97 13.44L394.97 13.44L394.97 13.44Q394.53 13.44 394.42 13.40L394.42 13.40L394.42 13.40Q394.30 13.37 394.30 13.24L394.30 13.24L394.30 13.24Q394.30 13.15 394.41 13.08L394.41 13.08L394.41 13.08Q394.52 13.02 394.65 13.00L394.65 13.00L394.65 13.00Q394.77 12.98 394.88 12.87L394.88 12.87L394.88 12.87Q395.00 12.77 395.00 12.59L395.00 12.59L395.00 12.59Q395.00 12.28 394.65 11.33L394.65 11.33L394.65 11.33Q394.30 10.37 394.06 9.93L394.06 9.93L394.06 9.93Q393.93 9.69 393.48 9.69L393.48 9.69L393.48 9.69Q393.41 9.69 392.87 9.70L392.87 9.70L392.87 9.70Q392.32 9.72 391.79 9.72L391.79 9.72L391.05 9.72L391.05 9.72Q390.42 9.72 390.26 9.79L390.26 9.79L390.26 9.79Q390.10 9.86 389.97 10.12L389.97 10.12L389.97 10.12Q389.89 10.30 389.69 10.70L389.69 10.70L389.69 10.70Q389.49 11.10 389.42 11.26L389.42 11.26L389.42 11.26Q389.35 11.41 389.25 11.65L389.25 11.65L389.25 11.65Q389.14 11.90 389.11 12.05L389.11 12.05L389.11 12.05Q389.07 12.19 389.07 12.31L389.07 12.31L389.07 12.31Q389.07 12.63 389.24 12.80L389.24 12.80L389.24 12.80Q389.40 12.96 389.59 12.98L389.59 12.98L389.59 12.98Q389.79 13.01 389.95 13.06L389.95 13.06L389.95 13.06Q390.11 13.12 390.11 13.26L390.11 13.26L390.11 13.26Q390.11 13.36 390.07 13.40L390.07 13.40L390.07 13.40Q390.03 13.45 389.87 13.45L389.87 13.45L389.87 13.45Q389.79 13.45 389.39 13.45L389.39 13.45L389.39 13.45Q388.99 13.44 388.71 13.44L388.71 13.44L388.71 13.44Q388.40 13.44 388.02 13.47L388.02 13.47L388.02 13.47Q387.63 13.50 387.51 13.50L387.51 13.50L387.51 13.50Q387.10 13.50 387.10 13.33ZM390.61 8.71L390.61 8.71L390.61 8.71Q390.61 8.89 390.74 8.93L390.74 8.93L390.74 8.93Q390.87 8.97 391.33 8.97L391.33 8.97L391.76 8.97L393.09 8.96L393.09 8.96Q393.64 8.96 393.64 8.74L393.64 8.74L393.64 8.74Q393.64 8.55 392.95 7.01L392.95 7.01L392.95 7.01Q392.27 5.46 392.08 5.46L392.08 5.46L392.08 5.46Q391.96 5.46 391.29 7.01L391.29 7.01L391.29 7.01Q390.61 8.55 390.61 8.71ZM405.47 3.70L405.47 3.70L405.47 3.70Q405.47 3.47 405.87 3.47L405.87 3.47L408.20 3.47L408.20 3.47Q408.52 3.47 408.94 3.45L408.94 3.45L408.94 3.45Q409.36 3.43 409.60 3.43L409.60 3.43L409.60 3.43Q410.86 3.43 411.75 4.07L411.75 4.07L411.75 4.07Q412.65 4.70 412.65 5.78L412.65 5.78L412.65 5.78Q412.65 6.50 412.38 7.03L412.38 7.03L412.38 7.03Q412.10 7.57 411.78 7.81L411.78 7.81L411.78 7.81Q411.45 8.05 411.17 8.22L411.17 8.22L411.17 8.22Q410.90 8.40 410.90 8.46L410.90 8.46L410.90 8.46Q410.90 8.62 412.08 10.27L412.08 10.27L412.08 10.27Q413.25 11.91 413.69 12.38L413.69 12.38L413.69 12.38Q414.22 13.03 414.97 13.03L414.97 13.03L414.97 13.03Q415.17 13.03 415.17 13.20L415.17 13.20L415.17 13.20Q415.17 13.41 415.00 13.48L415.00 13.48L415.00 13.48Q414.83 13.55 414.13 13.55L414.13 13.55L414.13 13.55Q413.48 13.55 412.93 13.23L412.93 13.23L412.93 13.23Q412.23 12.82 410.56 10.09L410.56 10.09L410.56 10.09Q410.47 9.94 410.42 9.87L410.42 9.87L410.42 9.87Q409.75 8.78 409.39 8.78L409.39 8.78L409.09 8.78L408.24 8.78L408.24 8.78Q408.07 8.78 408.04 8.92L408.04 8.92L408.04 8.92Q408.00 9.06 408.00 9.77L408.00 9.77L408.00 9.77Q408.00 10.44 408.00 10.88L408.00 10.88L408.00 10.88Q408.00 11.31 408.01 11.43L408.01 11.43L408.01 11.43Q408.02 11.55 408.02 11.63L408.02 11.63L408.02 11.63Q408.02 11.70 408.02 11.75L408.02 11.75L408.02 11.75Q408.02 12.32 408.28 12.63L408.28 12.63L408.28 12.63Q408.55 12.95 408.88 13.00L408.88 13.00L408.88 13.00Q409.21 13.05 409.47 13.11L409.47 13.11L409.47 13.11Q409.74 13.17 409.74 13.31L409.74 13.31L409.74 13.31Q409.74 13.54 409.49 13.54L409.49 13.54L409.49 13.54Q409.47 13.54 408.52 13.49L408.52 13.49L408.52 13.49Q407.57 13.44 407.48 13.44L407.48 13.44L407.48 13.44Q407.08 13.44 406.52 13.47L406.52 13.47L406.52 13.47Q405.96 13.50 405.94 13.50L405.94 13.50L405.94 13.50Q405.65 13.50 405.65 13.27L405.65 13.27L405.65 13.27Q405.65 13.12 405.83 13.05L405.83 13.05L405.83 13.05Q406.01 12.99 406.24 12.96L406.24 12.96L406.24 12.96Q406.46 12.94 406.64 12.66L406.64 12.66L406.64 12.66Q406.83 12.38 406.83 11.86L406.83 11.86L406.83 11.86Q406.83 11.49 406.83 9.90L406.83 9.90L406.83 9.90Q406.84 8.30 406.84 7.45L406.84 7.45L406.84 7.45Q406.84 6.58 406.83 5.86L406.83 5.86L406.83 5.86Q406.83 5.14 406.83 5.08L406.83 5.08L406.83 5.08Q406.83 4.56 406.62 4.29L406.62 4.29L406.62 4.29Q406.41 4.02 406.15 3.98L406.15 3.98L406.15 3.98Q405.89 3.95 405.68 3.89L405.68 3.89L405.68 3.89Q405.47 3.84 405.47 3.70ZM408.00 5.54L408.00 5.94L408.00 5.94Q408.00 7.38 408.02 7.72L408.02 7.72L408.02 7.72Q408.03 8.06 408.11 8.12L408.11 8.12L408.11 8.12Q408.32 8.25 408.72 8.25L408.72 8.25L408.86 8.25L409.26 8.25L409.26 8.25Q410.45 8.25 410.96 7.70L410.96 7.70L410.96 7.70Q411.47 7.15 411.47 6.30L411.47 6.30L411.47 6.30Q411.47 5.43 410.80 4.72L410.80 4.72L410.80 4.72Q410.12 4.00 408.74 4.00L408.74 4.00L408.74 4.00Q408.23 4.00 408.11 4.28L408.11 4.28L408.11 4.28Q408.00 4.55 408.00 5.54L408.00 5.54ZM422.52 13.33L422.52 13.33L422.52 13.33Q422.52 13.13 422.73 13.06L422.73 13.06L422.73 13.06Q423.18 12.89 423.51 12.31L423.51 12.31L423.51 12.31Q423.85 11.73 425.18 8.83L425.18 8.83L425.18 8.83Q426.55 5.87 427.60 3.63L427.60 3.63L427.60 3.63Q427.70 3.42 427.78 3.36L427.78 3.36L427.78 3.36Q427.85 3.30 428.02 3.30L428.02 3.30L428.02 3.30Q428.15 3.30 428.19 3.36L428.19 3.36L428.19 3.36Q428.23 3.42 428.37 3.82L428.37 3.82L428.37 3.82Q428.46 4.06 428.52 4.23L428.52 4.23L428.52 4.23Q428.58 4.40 428.72 4.77L428.72 4.77L428.72 4.77Q428.86 5.15 429.03 5.56L429.03 5.56L429.03 5.56Q429.48 6.66 430.58 9.22L430.58 9.22L430.58 9.22Q431.68 11.77 431.77 11.98L431.77 11.98L431.77 11.98Q432.01 12.46 432.31 12.71L432.31 12.71L432.31 12.71Q432.60 12.95 432.82 12.97L432.82 12.97L432.82 12.97Q433.03 12.99 433.18 13.04L433.18 13.04L433.18 13.04Q433.33 13.09 433.33 13.26L433.33 13.26L433.33 13.26Q433.33 13.47 432.95 13.47L432.95 13.47L432.95 13.47Q432.80 13.47 432.35 13.43L432.35 13.43L432.35 13.43Q431.90 13.38 431.69 13.38L431.69 13.38L431.69 13.38Q431.42 13.38 431.00 13.41L431.00 13.41L431.00 13.41Q430.58 13.44 430.39 13.44L430.39 13.44L430.39 13.44Q429.95 13.44 429.84 13.40L429.84 13.40L429.84 13.40Q429.72 13.37 429.72 13.24L429.72 13.24L429.72 13.24Q429.72 13.15 429.83 13.08L429.83 13.08L429.83 13.08Q429.94 13.02 430.07 13.00L430.07 13.00L430.07 13.00Q430.19 12.98 430.30 12.87L430.30 12.87L430.30 12.87Q430.42 12.77 430.42 12.59L430.42 12.59L430.42 12.59Q430.42 12.28 430.07 11.33L430.07 11.33L430.07 11.33Q429.72 10.37 429.48 9.93L429.48 9.93L429.48 9.93Q429.35 9.69 428.90 9.69L428.90 9.69L428.90 9.69Q428.83 9.69 428.29 9.70L428.29 9.70L428.29 9.70Q427.74 9.72 427.21 9.72L427.21 9.72L426.47 9.72L426.47 9.72Q425.84 9.72 425.68 9.79L425.68 9.79L425.68 9.79Q425.52 9.86 425.39 10.12L425.39 10.12L425.39 10.12Q425.31 10.30 425.11 10.70L425.11 10.70L425.11 10.70Q424.91 11.10 424.84 11.26L424.84 11.26L424.84 11.26Q424.77 11.41 424.67 11.65L424.67 11.65L424.67 11.65Q424.56 11.90 424.53 12.05L424.53 12.05L424.53 12.05Q424.49 12.19 424.49 12.31L424.49 12.31L424.49 12.31Q424.49 12.63 424.66 12.80L424.66 12.80L424.66 12.80Q424.82 12.96 425.01 12.98L425.01 12.98L425.01 12.98Q425.21 13.01 425.37 13.06L425.37 13.06L425.37 13.06Q425.53 13.12 425.53 13.26L425.53 13.26L425.53 13.26Q425.53 13.36 425.49 13.40L425.49 13.40L425.49 13.40Q425.45 13.45 425.29 13.45L425.29 13.45L425.29 13.45Q425.21 13.45 424.81 13.45L424.81 13.45L424.81 13.45Q424.41 13.44 424.13 13.44L424.13 13.44L424.13 13.44Q423.82 13.44 423.44 13.47L423.44 13.47L423.44 13.47Q423.05 13.50 422.93 13.50L422.93 13.50L422.93 13.50Q422.52 13.50 422.52 13.33ZM426.03 8.71L426.03 8.71L426.03 8.71Q426.03 8.89 426.16 8.93L426.16 8.93L426.16 8.93Q426.29 8.97 426.75 8.97L426.75 8.97L427.18 8.97L428.51 8.96L428.51 8.96Q429.06 8.96 429.06 8.74L429.06 8.74L429.06 8.74Q429.06 8.55 428.37 7.01L428.37 7.01L428.37 7.01Q427.69 5.46 427.50 5.46L427.50 5.46L427.50 5.46Q427.38 5.46 426.71 7.01L426.71 7.01L426.71 7.01Q426.03 8.55 426.03 8.71ZM440.89 3.77L440.89 3.77L440.89 3.77Q440.89 3.68 440.99 3.60L440.99 3.60L440.99 3.60Q441.08 3.53 441.24 3.53L441.24 3.53L441.24 3.53Q441.32 3.53 441.52 3.54L441.52 3.54L441.52 3.54Q441.71 3.54 441.77 3.54L441.77 3.54L441.77 3.54Q441.98 3.54 442.16 3.53L442.16 3.53L442.16 3.53Q442.34 3.51 442.46 3.51L442.46 3.51L442.46 3.51Q442.58 3.51 442.75 3.59L442.75 3.59L442.75 3.59Q442.92 3.67 442.95 3.75L442.95 3.75L442.95 3.75Q442.97 3.79 443.10 3.94L443.10 3.94L443.10 3.94Q443.23 4.09 443.44 4.33L443.44 4.33L443.44 4.33Q443.65 4.56 443.81 4.79L443.81 4.79L443.81 4.79Q445.72 7.27 448.91 10.77L448.91 10.77L448.91 10.77Q448.99 10.86 449.11 10.99L449.11 10.99L449.11 10.99Q449.23 11.12 449.28 11.18L449.28 11.18L449.28 11.18Q449.33 11.24 449.39 11.30L449.39 11.30L449.39 11.30Q449.44 11.35 449.48 11.38L449.48 11.38L449.48 11.38Q449.51 11.40 449.54 11.40L449.54 11.40L449.54 11.40Q449.68 11.40 449.68 10.53L449.68 10.53L449.68 8.89L449.68 8.89Q449.68 7.95 449.67 7.31L449.67 7.31L449.67 7.31Q449.67 6.66 449.66 6.38L449.66 6.38L449.66 6.38Q449.65 6.09 449.65 6.02L449.65 6.02L449.65 5.92L449.65 5.92Q449.65 5.45 449.59 5.11L449.59 5.11L449.59 5.11Q449.53 4.77 449.44 4.59L449.44 4.59L449.44 4.59Q449.36 4.41 449.20 4.28L449.20 4.28L449.20 4.28Q449.04 4.16 448.92 4.12L448.92 4.12L448.92 4.12Q448.81 4.09 448.60 4.05L448.60 4.05L448.60 4.05Q448.39 4.00 448.31 3.98L448.31 3.98L448.31 3.98Q448.03 3.89 448.03 3.74L448.03 3.74L448.03 3.74Q448.03 3.53 448.29 3.53L448.29 3.53L448.29 3.53Q448.38 3.53 448.97 3.54L448.97 3.54L448.97 3.54Q449.55 3.54 449.62 3.54L449.62 3.54L449.62 3.54Q449.96 3.54 450.37 3.53L450.37 3.53L450.37 3.53Q450.79 3.51 450.88 3.51L450.88 3.51L450.88 3.51Q451.12 3.51 451.21 3.56L451.21 3.56L451.21 3.56Q451.30 3.61 451.30 3.75L451.30 3.75L451.30 3.75Q451.30 3.81 451.23 3.86L451.23 3.86L451.23 3.86Q451.15 3.91 451.07 3.94L451.07 3.94L451.07 3.94Q450.98 3.98 450.90 4.00L450.90 4.00L450.81 4.03L450.81 4.03Q450.35 4.28 450.35 5.61L450.35 5.61L450.35 6.15L450.35 6.15Q450.35 7.21 450.28 9.83L450.28 9.83L450.28 9.83Q450.20 12.46 450.20 13.08L450.20 13.08L450.20 13.36L450.20 13.36Q450.20 13.68 450.00 13.68L450.00 13.68L450.00 13.68Q449.88 13.68 449.78 13.58L449.78 13.58L449.78 13.58Q445.13 8.19 444.23 7.17L444.23 7.17L444.23 7.17Q443.32 6.16 443.23 6.16L443.23 6.16L443.23 6.16Q443.09 6.16 443.09 7.11L443.09 7.11L443.09 7.11Q443.09 8.44 443.03 9.97L443.03 9.97L443.03 9.97Q442.97 11.51 442.97 11.65L442.97 11.65L442.97 11.65Q442.97 12.28 443.19 12.61L443.19 12.61L443.19 12.61Q443.41 12.94 443.66 12.98L443.66 12.98L443.66 12.98Q443.91 13.02 444.13 13.07L444.13 13.07L444.13 13.07Q444.35 13.12 444.35 13.26L444.35 13.26L444.35 13.26Q444.35 13.41 444.30 13.45L444.30 13.45L444.30 13.45Q444.25 13.50 444.12 13.50L444.12 13.50L444.12 13.50Q444.02 13.50 443.68 13.48L443.68 13.48L443.68 13.48Q443.34 13.47 442.62 13.47L442.62 13.47L442.62 13.47Q442.50 13.47 442.11 13.48L442.11 13.48L442.11 13.48Q441.71 13.50 441.43 13.50L441.43 13.50L441.43 13.50Q441.13 13.50 441.13 13.27L441.13 13.27L441.13 13.27Q441.13 13.15 441.31 13.11L441.31 13.11L441.31 13.11Q441.49 13.08 441.76 12.89L441.76 12.89L441.76 12.89Q442.02 12.71 442.16 12.21L442.16 12.21L442.16 12.21Q442.25 11.89 442.37 9.60L442.37 9.60L442.37 9.60Q442.50 7.32 442.50 6.45L442.50 6.45L442.50 6.45Q442.50 5.25 442.16 4.65L442.16 4.65L442.16 4.65Q441.83 4.06 441.07 3.98L441.07 3.98L441.07 3.98Q440.89 3.96 440.89 3.77ZM459.06 5.32L459.06 5.32L459.06 5.32Q459.06 4.76 459.20 3.88L459.20 3.88L459.20 3.88Q459.20 3.85 459.21 3.78L459.21 3.78L459.21 3.78Q459.21 3.71 459.22 3.69L459.22 3.69L459.22 3.69Q459.23 3.67 459.24 3.62L459.24 3.62L459.24 3.62Q459.24 3.57 459.26 3.55L459.26 3.55L459.26 3.55Q459.27 3.53 459.29 3.49L459.29 3.49L459.29 3.49Q459.31 3.46 459.34 3.44L459.34 3.44L459.34 3.44Q459.37 3.43 459.41 3.42L459.41 3.42L459.41 3.42Q459.45 3.40 459.51 3.39L459.51 3.39L459.51 3.39Q459.56 3.39 459.63 3.39L459.63 3.39L459.63 3.39Q459.86 3.39 460.82 3.44L460.82 3.44L460.82 3.44Q461.78 3.50 463.58 3.50L463.58 3.50L463.58 3.50Q466.66 3.50 467.89 3.43L467.89 3.43L467.89 3.43Q467.91 3.43 467.94 3.42L467.94 3.42L467.94 3.42Q467.98 3.42 467.99 3.42L467.99 3.42L467.99 3.42Q468.15 3.42 468.20 3.50L468.20 3.50L468.20 3.50Q468.26 3.58 468.26 3.65L468.26 3.65L468.26 3.65Q468.26 3.75 468.30 4.24L468.30 4.24L468.30 4.24Q468.34 4.73 468.34 4.79L468.34 4.79L468.34 4.79Q468.34 5.14 468.30 5.23L468.30 5.23L468.30 5.23Q468.26 5.32 468.12 5.32L468.12 5.32L468.12 5.32Q468.01 5.32 467.96 5.15L467.96 5.15L467.96 5.15Q467.85 4.75 467.77 4.60L467.77 4.60L467.77 4.60Q467.68 4.45 467.40 4.34L467.40 4.34L467.40 4.34Q467.12 4.23 466.55 4.23L466.55 4.23L464.73 4.23L464.73 4.23Q464.39 4.23 464.32 4.36L464.32 4.36L464.32 4.36Q464.24 4.49 464.24 5.12L464.24 5.12L464.24 5.81L464.24 5.81Q464.24 7.69 464.22 9.11L464.22 9.11L464.22 9.11Q464.20 10.54 464.20 10.93L464.20 10.93L464.20 10.93Q464.20 11.13 464.19 11.43L464.19 11.43L464.19 11.43Q464.18 11.73 464.18 11.84L464.18 11.84L464.18 11.84Q464.18 12.45 464.38 12.64L464.38 12.64L464.38 12.64Q464.56 12.81 464.79 12.90L464.79 12.90L464.79 12.90Q465.01 12.99 465.17 13.01L465.17 13.01L465.17 13.01Q465.33 13.02 465.44 13.08L465.44 13.08L465.44 13.08Q465.56 13.13 465.56 13.26L465.56 13.26L465.56 13.26Q465.56 13.41 465.49 13.45L465.49 13.45L465.49 13.45Q465.42 13.50 465.22 13.50L465.22 13.50L465.22 13.50Q465.05 13.50 464.48 13.44L464.48 13.44L464.48 13.44Q463.90 13.38 463.67 13.38L463.67 13.38L463.67 13.38Q463.50 13.38 462.99 13.43L462.99 13.43L462.99 13.43Q462.48 13.48 462.24 13.48L462.24 13.48L462.24 13.48Q461.72 13.48 461.72 13.26L461.72 13.26L461.72 13.26Q461.72 13.12 461.80 13.07L461.80 13.07L461.80 13.07Q461.89 13.02 462.13 12.98L462.13 12.98L462.13 12.98Q462.38 12.95 462.45 12.94L462.45 12.94L462.45 12.94Q462.92 12.82 462.98 12.38L462.98 12.38L462.98 12.38Q463.12 11.14 463.12 7.08L463.12 7.08L463.11 4.58L463.11 4.58Q463.11 4.31 462.95 4.25L462.95 4.25L462.95 4.25Q462.80 4.19 462.04 4.19L462.04 4.19L462.04 4.19Q461.06 4.19 460.57 4.24L460.57 4.24L460.57 4.24Q460.07 4.30 459.98 4.35L459.98 4.35L459.98 4.35Q459.90 4.40 459.79 4.54L459.79 4.54L459.79 4.54Q459.66 4.70 459.59 4.91L459.59 4.91L459.59 4.91Q459.51 5.11 459.49 5.24L459.49 5.24L459.49 5.24Q459.47 5.38 459.40 5.47L459.40 5.47L459.40 5.47Q459.34 5.56 459.21 5.56L459.21 5.56L459.21 5.56Q459.06 5.56 459.06 5.32ZM475.90 3.65L475.90 3.65L475.90 3.65Q475.90 3.46 476.29 3.46L476.29 3.46L476.29 3.46Q476.35 3.46 476.48 3.47L476.48 3.47L476.48 3.47Q476.60 3.49 476.67 3.49L476.67 3.49L476.67 3.49Q476.71 3.49 477.99 3.52L477.99 3.52L477.99 3.52Q479.26 3.56 480.09 3.56L480.09 3.56L480.09 3.56Q480.38 3.56 481.54 3.53L481.54 3.53L481.54 3.53Q482.69 3.50 482.89 3.50L482.89 3.50L482.89 3.50Q483.15 3.50 483.15 3.82L483.15 3.82L483.15 3.82Q483.15 3.91 483.07 4.38L483.07 4.38L483.07 4.38Q482.99 4.84 482.99 5.25L482.99 5.25L482.99 5.25Q482.99 5.38 482.92 5.47L482.92 5.47L482.92 5.47Q482.85 5.56 482.76 5.56L482.76 5.56L482.76 5.56Q482.55 5.56 482.55 5.26L482.55 5.26L482.55 5.26Q482.55 4.89 482.31 4.58L482.31 4.58L482.31 4.58Q482.08 4.27 481.73 4.26L481.73 4.26L481.73 4.26Q480.47 4.16 479.79 4.16L479.79 4.16L479.43 4.16L479.43 4.16Q478.70 4.16 478.58 4.26L478.58 4.26L478.58 4.26Q478.46 4.37 478.44 5.01L478.44 5.01L478.44 5.01Q478.38 6.02 478.38 7.35L478.38 7.35L478.38 7.35Q478.38 8.05 478.65 8.06L478.65 8.06L479.00 8.06L479.58 8.06L480.02 8.06L480.02 8.06Q480.86 8.06 481.14 8.01L481.14 8.01L481.14 8.01Q481.42 7.95 481.64 7.80L481.64 7.80L481.64 7.80Q481.91 7.62 481.96 7.28L481.96 7.28L481.96 7.28Q482.01 7.04 482.16 7.04L482.16 7.04L482.16 7.04Q482.29 7.04 482.31 7.08L482.31 7.08L482.31 7.08Q482.34 7.13 482.34 7.27L482.34 7.27L482.34 7.27Q482.34 7.36 482.29 7.91L482.29 7.91L482.29 7.91Q482.23 8.46 482.23 8.74L482.23 8.74L482.23 8.74Q482.23 9.00 482.25 9.24L482.25 9.24L482.25 9.24Q482.27 9.48 482.27 9.59L482.27 9.59L482.27 9.59Q482.27 9.94 482.17 9.94L482.17 9.94L482.17 9.94Q481.96 9.94 481.87 9.60L481.87 9.60L481.87 9.60Q481.67 9.02 481.52 8.92L481.52 8.92L481.52 8.92Q481.22 8.72 480.17 8.72L480.17 8.72L480.17 8.72Q479.75 8.72 479.49 8.72L479.49 8.72L479.49 8.72Q479.23 8.72 479.16 8.71L479.16 8.71L479.16 8.71Q479.08 8.71 479.03 8.71L479.03 8.71L479.03 8.71Q478.98 8.71 478.94 8.71L478.94 8.71L478.94 8.71Q478.37 8.71 478.37 8.97L478.37 8.97L478.37 8.97Q478.37 9.38 478.35 9.99L478.35 9.99L478.35 9.99Q478.34 10.60 478.34 10.99L478.34 10.99L478.34 11.55L478.34 11.55Q478.34 12.56 478.67 12.66L478.67 12.66L478.67 12.66Q479.02 12.77 479.28 12.77L479.28 12.77L479.28 12.77Q480.33 12.77 481.12 12.67L481.12 12.67L481.12 12.67Q481.91 12.57 482.31 12.42L482.31 12.42L482.31 12.42Q482.71 12.28 482.97 12.10L482.97 12.10L482.97 12.10Q483.24 11.93 483.32 11.78L483.32 11.78L483.32 11.78Q483.39 11.63 483.47 11.54L483.47 11.54L483.47 11.54Q483.55 11.44 483.63 11.44L483.63 11.44L483.63 11.44Q483.80 11.44 483.80 11.68L483.80 11.68L483.80 11.68Q483.80 12.28 483.20 12.89L483.20 12.89L483.20 12.89Q482.59 13.51 482.15 13.51L482.15 13.51L482.15 13.51Q481.14 13.51 479.87 13.44L479.87 13.44L479.87 13.44Q478.60 13.37 478.30 13.37L478.30 13.37L478.30 13.37Q477.90 13.37 477.32 13.43L477.32 13.43L477.32 13.43Q476.73 13.50 476.39 13.50L476.39 13.50L476.39 13.50Q476.10 13.50 476.10 13.36L476.10 13.36L476.10 13.36Q476.10 13.23 476.10 13.19L476.10 13.19L476.10 13.19Q476.10 13.15 476.14 13.12L476.14 13.12L476.14 13.12Q476.18 13.09 476.23 13.08L476.23 13.08L476.23 13.08Q476.28 13.08 476.41 13.03L476.41 13.03L476.41 13.03Q476.55 12.99 476.70 12.92L476.70 12.92L476.70 12.92Q477.04 12.75 477.14 12.26L477.14 12.26L477.14 12.26Q477.25 11.77 477.25 10.21L477.25 10.21L477.25 8.47L477.25 8.47Q477.25 8.09 477.27 7.29L477.27 7.29L477.27 7.29Q477.29 6.50 477.29 6.05L477.29 6.05L477.29 6.05Q477.29 5.67 477.26 4.77L477.26 4.77L477.26 4.77Q477.25 4.37 476.91 4.14L476.91 4.14L476.91 4.14Q476.57 3.92 476.13 3.91L476.13 3.91L476.13 3.91Q475.90 3.91 475.90 3.65ZM491.36 3.65L491.36 3.65L491.36 3.65Q491.36 3.46 491.75 3.46L491.75 3.46L491.75 3.46Q491.81 3.46 491.93 3.47L491.93 3.47L491.93 3.47Q492.06 3.49 492.13 3.49L492.13 3.49L492.13 3.49Q492.17 3.49 493.44 3.52L493.44 3.52L493.44 3.52Q494.72 3.56 495.54 3.56L495.54 3.56L495.54 3.56Q495.84 3.56 496.99 3.53L496.99 3.53L496.99 3.53Q498.15 3.50 498.34 3.50L498.34 3.50L498.34 3.50Q498.61 3.50 498.61 3.82L498.61 3.82L498.61 3.82Q498.61 3.91 498.53 4.38L498.53 4.38L498.53 4.38Q498.44 4.84 498.44 5.25L498.44 5.25L498.44 5.25Q498.44 5.38 498.37 5.47L498.37 5.47L498.37 5.47Q498.30 5.56 498.22 5.56L498.22 5.56L498.22 5.56Q498.01 5.56 498.01 5.26L498.01 5.26L498.01 5.26Q498.01 4.89 497.77 4.58L497.77 4.58L497.77 4.58Q497.53 4.27 497.18 4.26L497.18 4.26L497.18 4.26Q495.92 4.16 495.25 4.16L495.25 4.16L494.89 4.16L494.89 4.16Q494.16 4.16 494.04 4.26L494.04 4.26L494.04 4.26Q493.92 4.37 493.89 5.01L493.89 5.01L493.89 5.01Q493.84 6.02 493.84 7.35L493.84 7.35L493.84 7.35Q493.84 8.05 494.10 8.06L494.10 8.06L494.45 8.06L495.04 8.06L495.47 8.06L495.47 8.06Q496.31 8.06 496.59 8.01L496.59 8.01L496.59 8.01Q496.87 7.95 497.10 7.80L497.10 7.80L497.10 7.80Q497.36 7.62 497.42 7.28L497.42 7.28L497.42 7.28Q497.46 7.04 497.62 7.04L497.62 7.04L497.62 7.04Q497.74 7.04 497.77 7.08L497.77 7.08L497.77 7.08Q497.80 7.13 497.80 7.27L497.80 7.27L497.80 7.27Q497.80 7.36 497.74 7.91L497.74 7.91L497.74 7.91Q497.69 8.46 497.69 8.74L497.69 8.74L497.69 8.74Q497.69 9.00 497.71 9.24L497.71 9.24L497.71 9.24Q497.73 9.48 497.73 9.59L497.73 9.59L497.73 9.59Q497.73 9.94 497.63 9.94L497.63 9.94L497.63 9.94Q497.42 9.94 497.32 9.60L497.32 9.60L497.32 9.60Q497.13 9.02 496.97 8.92L496.97 8.92L496.97 8.92Q496.68 8.72 495.63 8.72L495.63 8.72L495.63 8.72Q495.21 8.72 494.95 8.72L494.95 8.72L494.95 8.72Q494.69 8.72 494.61 8.71L494.61 8.71L494.61 8.71Q494.54 8.71 494.49 8.71L494.49 8.71L494.49 8.71Q494.44 8.71 494.40 8.71L494.40 8.71L494.40 8.71Q493.82 8.71 493.82 8.97L493.82 8.97L493.82 8.97Q493.82 9.38 493.81 9.99L493.81 9.99L493.81 9.99Q493.79 10.60 493.79 10.99L493.79 10.99L493.79 11.55L493.79 11.55Q493.79 12.56 494.13 12.66L494.13 12.66L494.13 12.66Q494.48 12.77 494.73 12.77L494.73 12.77L494.73 12.77Q495.78 12.77 496.57 12.67L496.57 12.67L496.57 12.67Q497.36 12.57 497.76 12.42L497.76 12.42L497.76 12.42Q498.16 12.28 498.43 12.10L498.43 12.10L498.43 12.10Q498.69 11.93 498.77 11.78L498.77 11.78L498.77 11.78Q498.85 11.63 498.93 11.54L498.93 11.54L498.93 11.54Q499.00 11.44 499.09 11.44L499.09 11.44L499.09 11.44Q499.25 11.44 499.25 11.68L499.25 11.68L499.25 11.68Q499.25 12.28 498.65 12.89L498.65 12.89L498.65 12.89Q498.05 13.51 497.60 13.51L497.60 13.51L497.60 13.51Q496.59 13.51 495.33 13.44L495.33 13.44L495.33 13.44Q494.06 13.37 493.75 13.37L493.75 13.37L493.75 13.37Q493.36 13.37 492.77 13.43L492.77 13.43L492.77 13.43Q492.18 13.50 491.85 13.50L491.85 13.50L491.85 13.50Q491.55 13.50 491.55 13.36L491.55 13.36L491.55 13.36Q491.55 13.23 491.55 13.19L491.55 13.19L491.55 13.19Q491.55 13.15 491.60 13.12L491.60 13.12L491.60 13.12Q491.64 13.09 491.69 13.08L491.69 13.08L491.69 13.08Q491.74 13.08 491.87 13.03L491.87 13.03L491.87 13.03Q492.00 12.99 492.16 12.92L492.16 12.92L492.16 12.92Q492.49 12.75 492.60 12.26L492.60 12.26L492.60 12.26Q492.70 11.77 492.70 10.21L492.70 10.21L492.70 8.47L492.70 8.47Q492.70 8.09 492.72 7.29L492.72 7.29L492.72 7.29Q492.74 6.50 492.74 6.05L492.74 6.05L492.74 6.05Q492.74 5.67 492.72 4.77L492.72 4.77L492.72 4.77Q492.70 4.37 492.37 4.14L492.37 4.14L492.37 4.14Q492.03 3.92 491.58 3.91L491.58 3.91L491.58 3.91Q491.36 3.91 491.36 3.65ZM506.81 3.64L506.81 3.64L506.81 3.64Q506.81 3.51 506.93 3.49L506.93 3.49L506.93 3.49Q507.05 3.47 507.53 3.47L507.53 3.47L508.75 3.47L508.75 3.47Q509.10 3.47 510.03 3.44L510.03 3.44L510.03 3.44Q510.97 3.42 511.48 3.42L511.48 3.42L511.48 3.42Q512.44 3.42 513.41 3.71L513.41 3.71L513.41 3.71Q514.37 4.00 515.19 4.56L515.19 4.56L515.19 4.56Q516.00 5.11 516.50 6.00L516.50 6.00L516.50 6.00Q517.01 6.89 517.01 7.98L517.01 7.98L517.01 7.98Q517.01 8.96 516.87 9.68L516.87 9.68L516.87 9.68Q516.74 10.40 516.43 10.93L516.43 10.93L516.43 10.93Q516.12 11.45 515.82 11.78L515.82 11.78L515.82 11.78Q515.51 12.11 514.98 12.56L514.98 12.56L514.98 12.56Q514.56 12.89 513.76 13.19L513.76 13.19L513.76 13.19Q512.96 13.48 512.12 13.48L512.12 13.48L512.12 13.48Q512.04 13.48 510.69 13.45L510.69 13.45L510.69 13.45Q509.35 13.41 508.76 13.41L508.76 13.41L508.76 13.41Q508.27 13.41 507.85 13.45L507.85 13.45L507.85 13.45Q507.43 13.48 507.36 13.48L507.36 13.48L507.36 13.48Q507.02 13.48 507.02 13.30L507.02 13.30L507.02 13.30Q507.02 13.19 507.07 13.14L507.07 13.14L507.07 13.14Q507.12 13.09 507.28 13.05L507.28 13.05L507.28 13.05Q507.44 13.01 507.51 12.98L507.51 12.98L507.51 12.98Q507.74 12.88 507.93 12.61L507.93 12.61L507.93 12.61Q508.12 12.33 508.12 12.07L508.12 12.07L508.12 12.07Q508.12 11.28 508.12 10.07L508.12 10.07L508.12 10.07Q508.13 8.85 508.13 8.27L508.13 8.27L508.13 8.27Q508.13 7.77 508.12 6.70L508.12 6.70L508.12 6.70Q508.12 5.63 508.12 4.72L508.12 4.72L508.12 4.72Q508.12 4.48 507.89 4.23L507.89 4.23L507.89 4.23Q507.65 3.99 507.37 3.98L507.37 3.98L507.37 3.98Q507.18 3.96 507.09 3.95L507.09 3.95L507.09 3.95Q507.00 3.93 506.91 3.86L506.91 3.86L506.91 3.86Q506.81 3.78 506.81 3.64ZM509.29 11.47L509.29 11.47L509.29 11.47Q509.29 11.73 509.30 11.90L509.30 11.90L509.30 11.90Q509.31 12.07 509.36 12.21L509.36 12.21L509.36 12.21Q509.40 12.35 509.43 12.40L509.43 12.40L509.43 12.40Q509.46 12.46 509.60 12.53L509.60 12.53L509.60 12.53Q509.74 12.60 509.82 12.62L509.82 12.62L509.82 12.62Q509.89 12.64 510.15 12.71L510.15 12.71L510.15 12.71Q510.40 12.78 510.57 12.82L510.57 12.82L510.57 12.82Q511.06 12.96 511.59 12.96L511.59 12.96L511.87 12.96L511.87 12.96Q512.82 12.96 513.49 12.69L513.49 12.69L513.49 12.69Q514.16 12.42 514.78 11.83L514.78 11.83L514.78 11.83Q515.82 10.84 515.82 8.61L515.82 8.61L515.82 8.61Q515.82 7.49 515.38 6.58L515.38 6.58L515.38 6.58Q514.93 5.67 514.22 5.13L514.22 5.13L514.22 5.13Q513.51 4.59 512.68 4.30L512.68 4.30L512.68 4.30Q511.85 4.02 511.01 4.02L511.01 4.02L511.01 4.02Q510.64 4.02 510.46 4.02L510.46 4.02L510.46 4.02Q510.29 4.02 510.06 4.05L510.06 4.05L510.06 4.05Q509.82 4.09 509.75 4.11L509.75 4.11L509.75 4.11Q509.67 4.13 509.56 4.25L509.56 4.25L509.56 4.25Q509.45 4.37 509.43 4.45L509.43 4.45L509.43 4.45Q509.40 4.54 509.37 4.78L509.37 4.78L509.37 4.78Q509.33 5.03 509.33 5.21L509.33 5.21L509.33 5.21Q509.33 5.39 509.33 5.80L509.33 5.80L509.33 5.80Q509.33 6.10 509.32 7.24L509.32 7.24L509.32 7.24Q509.31 8.39 509.31 8.48L509.31 8.48L509.31 8.48Q509.31 9.32 509.30 10.30L509.30 10.30L509.30 10.30Q509.29 11.28 509.29 11.47Z"></path></g></svg>
