<svg data-v-423bf9ae="" xmlns="http://www.w3.org/2000/svg" viewBox="0 0 246.9482323080576 60" class="font"><!----><!----><!----><g data-v-423bf9ae="" id="2eddbd41-568d-4ca3-9557-98f263e6e754" fill="white" transform="matrix(4.087193641044897,0,0,4.087193641044897,-4.4550401993491135,-11.117166582159093)"><path d="M1.23 10.91C1.23 11.30 1.22 11.65 1.20 11.96C1.18 12.57 1.14 13.10 1.09 13.53L3.38 13.53C3.36 13.36 3.33 13.11 3.31 12.80C3.26 12.17 3.24 11.54 3.24 10.91L3.24 10.44C3.26 9.93 3.43 9.38 3.69 8.99C3.97 8.57 4.34 8.31 4.76 8.31C5.21 8.31 5.46 8.46 5.58 8.77C5.68 9.05 5.70 9.40 5.70 10.19L5.70 10.92C5.70 11.29 5.69 11.63 5.68 11.95C5.65 12.57 5.61 13.10 5.57 13.53L7.84 13.53C7.82 13.35 7.80 13.12 7.78 12.85C7.74 12.24 7.72 11.56 7.72 10.83L7.72 10.21C7.75 9.73 7.92 9.26 8.19 8.90C8.46 8.53 8.82 8.31 9.21 8.31C9.66 8.31 9.90 8.46 10.02 8.77C10.13 9.05 10.14 9.40 10.14 10.19L10.14 10.92C10.14 11.29 10.14 11.63 10.12 11.95C10.09 12.57 10.06 13.10 10.01 13.53L12.29 13.53C12.26 13.35 12.24 13.12 12.22 12.85C12.19 12.24 12.17 11.56 12.17 10.83L12.17 9.79C12.17 9.25 12.12 8.83 12.03 8.53C11.91 8.12 11.70 7.81 11.39 7.59C11.04 7.34 10.54 7.22 9.88 7.22C9.41 7.22 8.97 7.36 8.55 7.66C8.15 7.93 7.85 8.31 7.65 8.71C7.55 8.23 7.34 7.86 7.03 7.63C6.66 7.36 6.13 7.22 5.43 7.22C4.98 7.22 4.56 7.36 4.14 7.64C3.77 7.90 3.46 8.25 3.29 8.61C3.31 8.18 3.33 7.85 3.35 7.63C3.35 7.64 3.36 7.55 3.38 7.33L1.09 7.51L1.11 7.69L1.16 8.20C1.20 8.87 1.23 9.50 1.23 10.09ZM13.66 13.20C13.83 13.29 14.04 13.38 14.30 13.48C14.83 13.66 15.36 13.76 15.87 13.76C16.60 13.76 17.33 13.59 17.89 13.28C18.49 12.92 18.85 12.38 18.85 11.63C18.85 11.30 18.77 11.03 18.62 10.79C18.35 10.39 17.91 10.05 17.29 9.78C16.97 9.64 16.72 9.53 16.53 9.44C16.00 9.18 15.72 8.96 15.72 8.64C15.72 8.43 15.83 8.25 16.04 8.13C16.23 8.03 16.46 7.97 16.76 7.97C17.00 7.97 17.21 8.00 17.39 8.06C17.74 8.18 18.01 8.33 18.21 8.53L18.43 7.67C18.28 7.57 18.13 7.50 17.95 7.44C17.54 7.29 17.12 7.22 16.68 7.22C16.25 7.22 15.84 7.27 15.46 7.39C14.99 7.53 14.63 7.74 14.36 8.02C14.04 8.34 13.88 8.74 13.88 9.20C13.88 9.53 13.96 9.81 14.11 10.04C14.38 10.45 14.82 10.81 15.43 11.10L15.75 11.26C15.95 11.35 16.09 11.42 16.18 11.47C16.70 11.73 16.98 11.94 16.98 12.23C16.98 12.48 16.87 12.67 16.67 12.80C16.46 12.92 16.22 12.99 15.92 12.99C15.66 12.99 15.40 12.95 15.16 12.88C14.67 12.75 14.23 12.57 13.85 12.33ZM19.79 8.30L20.60 8.30L20.60 10.43C20.60 11.66 20.76 12.46 21.14 12.97C21.53 13.51 22.19 13.76 23.21 13.76C23.57 13.76 23.88 13.73 24.14 13.66C24.67 13.54 25.07 13.38 25.36 13.16L25.20 12.32C25.07 12.43 24.93 12.51 24.78 12.59C24.44 12.76 24.12 12.85 23.80 12.85C23.30 12.85 23.00 12.63 22.83 12.17C22.67 11.75 22.62 11.10 22.62 10.06L22.62 8.32L23.26 8.35L23.60 8.37L24.29 8.42C24.41 8.44 24.48 8.44 24.49 8.45L24.70 7.44L22.62 7.44C22.62 6.70 22.62 6.06 22.63 5.53C22.64 5.38 22.64 5.19 22.64 4.96L21.40 4.96C21.26 5.16 21.13 5.37 21.00 5.60C20.73 6.08 20.60 6.49 20.60 6.82L20.60 7.50C20.52 7.51 20.41 7.54 20.24 7.57C20.03 7.64 19.88 7.69 19.80 7.73ZM32.63 12.74L32.42 12.79C32.37 12.80 32.32 12.81 32.27 12.81L32.22 12.81C32.05 12.80 31.93 12.71 31.86 12.50C31.81 12.36 31.78 12.14 31.78 11.87L31.78 9.69C31.78 8.86 31.64 8.27 31.30 7.87C30.93 7.44 30.32 7.22 29.37 7.22C28.93 7.22 28.45 7.29 27.94 7.44C27.38 7.60 26.91 7.83 26.53 8.11L26.73 8.84C27.01 8.62 27.29 8.45 27.58 8.32C27.99 8.12 28.38 8.02 28.73 8.02C29.13 8.02 29.41 8.16 29.57 8.43C29.69 8.64 29.76 8.97 29.76 9.42L29.76 10.11L27.35 10.90C26.73 11.10 26.38 11.27 26.17 11.47C25.96 11.69 25.89 11.94 25.89 12.36C25.89 12.84 26.06 13.20 26.42 13.42C26.74 13.64 27.21 13.74 27.83 13.74C28.20 13.74 28.59 13.67 29.00 13.53C29.36 13.41 29.67 13.24 29.93 13.05C30.11 13.45 30.53 13.72 31.17 13.72C31.53 13.72 31.86 13.68 32.16 13.59C32.42 13.52 32.63 13.44 32.76 13.35ZM28.51 12.82C27.96 12.82 27.74 12.67 27.74 12.14C27.74 11.91 27.85 11.73 28.08 11.58C28.27 11.46 28.63 11.32 28.99 11.19L29.76 10.90L29.76 12.38C29.63 12.50 29.43 12.61 29.15 12.70C28.89 12.78 28.67 12.82 28.51 12.82ZM36.30 10.64C36.30 10.08 36.45 9.51 36.73 9.06C37.02 8.59 37.41 8.31 37.86 8.31C38.81 8.31 39.19 8.90 39.19 10.19L39.19 11.09C39.19 11.46 39.19 11.79 39.17 12.10C39.14 12.68 39.11 13.16 39.06 13.53L41.34 13.53L41.29 13.09L41.28 12.93C41.24 12.37 41.22 11.73 41.22 11.00L41.22 9.79C41.22 9.02 41.05 8.42 40.72 8.01C40.29 7.48 39.61 7.22 38.66 7.22C38.21 7.22 37.72 7.38 37.29 7.64C36.88 7.90 36.53 8.25 36.34 8.62C36.36 8.17 36.38 7.84 36.40 7.63C36.40 7.64 36.41 7.55 36.43 7.33L34.14 7.51L34.16 7.69L34.21 8.20C34.26 8.79 34.28 9.43 34.28 10.09L34.28 10.91C34.28 11.30 34.27 11.65 34.26 11.96C34.23 12.60 34.19 13.13 34.14 13.53L36.43 13.53L36.41 13.31C36.39 13.17 36.38 12.97 36.37 12.72C36.32 12.04 36.30 11.35 36.30 10.64ZM43.43 10.91C43.43 11.30 43.43 11.65 43.41 11.96C43.39 12.60 43.34 13.13 43.29 13.53L45.58 13.53C45.56 13.36 45.53 13.11 45.51 12.80C45.47 12.23 45.45 11.61 45.45 10.91L45.45 5.53C45.45 5.13 45.46 4.76 45.47 4.42C45.49 3.75 45.53 3.19 45.58 2.72L43.29 2.90C43.32 3.08 43.34 3.35 43.36 3.69C43.41 4.36 43.43 5.03 43.43 5.70ZM51.04 7.22C50.38 7.22 49.77 7.32 49.22 7.53C48.59 7.77 48.11 8.12 47.77 8.57C47.38 9.10 47.18 9.75 47.18 10.51C47.18 11.59 47.59 12.42 48.30 12.97C48.95 13.50 49.87 13.76 50.87 13.76C51.27 13.76 51.68 13.68 52.11 13.52C52.50 13.38 52.81 13.22 52.95 13.06L52.81 12.34C52.62 12.47 52.40 12.58 52.15 12.67C51.77 12.82 51.39 12.89 51.03 12.89C50.58 12.89 50.16 12.69 49.85 12.32C49.51 11.92 49.30 11.33 49.29 10.58L49.29 10.43C49.29 10.39 49.30 10.35 49.31 10.28L52.62 10.28L53.07 10.28C53.18 10.28 53.33 10.28 53.52 10.28L53.90 10.28C53.98 10.29 54.07 10.29 54.19 10.29L54.33 9.54L54.19 9.54C54.12 9.55 54.03 9.55 53.88 9.55L53.53 9.55C53.45 9.55 53.35 9.55 53.24 9.55C53.52 9.44 53.68 9.21 53.68 8.72C53.68 8.38 53.53 8.08 53.23 7.83C52.97 7.63 52.63 7.47 52.18 7.36C51.81 7.27 51.43 7.22 51.04 7.22ZM51.00 8.09C51.64 8.09 52.04 8.42 52.04 8.97C52.04 9.18 51.95 9.33 51.78 9.42C51.65 9.49 51.48 9.53 51.27 9.53C50.85 9.53 50.54 9.53 50.33 9.52L49.38 9.52C49.50 9.05 49.73 8.68 50.04 8.44C50.32 8.21 50.67 8.09 51.00 8.09ZM56.93 13.40L57.56 13.67C57.39 13.88 57.19 14.13 56.97 14.43C56.62 14.95 56.30 15.44 56.01 15.94C55.81 16.30 55.62 16.64 55.45 16.96L55.37 17.12L55.42 17.40L56.22 17.39C56.29 17.21 56.48 16.87 56.79 16.37C57.20 15.72 57.56 15.19 57.86 14.79C58.31 14.18 58.70 13.73 59.02 13.43C59.31 13.15 59.61 12.83 59.93 12.47C60.54 11.77 60.97 11.07 61.23 10.36C61.42 9.86 61.51 9.30 61.51 8.69C61.51 8.53 61.51 8.41 61.50 8.34L61.49 8.16L61.45 7.74C61.42 7.62 61.42 7.55 61.41 7.51L60.19 7.34C60.23 7.47 60.28 7.64 60.32 7.85C60.36 8.08 60.38 8.34 60.38 8.66C60.38 8.75 60.38 8.93 60.37 9.18C60.30 9.77 60.06 10.42 59.63 11.13C59.40 11.53 59.07 11.98 58.65 12.47C58.14 11.02 57.75 9.92 57.48 9.16C57.40 8.95 57.34 8.74 57.29 8.53C57.18 8.12 57.09 7.76 57.04 7.44L54.64 7.44C54.69 7.55 54.75 7.67 54.82 7.83C54.85 7.92 54.89 7.99 54.91 8.04C55.05 8.37 55.22 8.78 55.41 9.28L55.72 10.10Z"></path></g><!----><!----></svg>